<svg version="1.1" id="Layer_1" xmlns="http://www.w3.org/2000/svg" xmlns:xlink="http://www.w3.org/1999/xlink" x="0px" y="0px"
	 width="100%" viewBox="0 0 500 500" enable-background="new 0 0 500 500" xml:space="preserve">
<path fill="#000000" opacity="1.000000" stroke="none" 
	d="
M272.000000,501.000000 
	C181.333359,501.000000 91.166710,501.000000 1.000048,501.000000 
	C1.000032,334.333405 1.000032,167.666794 1.000016,1.000138 
	C167.666565,1.000092 334.333130,1.000092 500.999756,1.000046 
	C500.999847,167.666519 500.999847,334.333038 500.999939,500.999786 
	C424.833344,501.000000 348.666656,501.000000 272.000000,501.000000 
M412.400970,288.869141 
	C412.560089,288.593964 412.606415,288.300934 412.868195,287.226624 
	C413.092896,284.815460 413.317596,282.404297 413.795563,279.287659 
	C413.496643,277.867706 413.197693,276.447723 412.952148,274.223816 
	C412.880676,273.154602 412.809235,272.085388 412.864319,270.294403 
	C412.513184,269.212952 412.162048,268.131500 411.707703,266.328552 
	C408.906860,257.917145 403.752319,251.262421 396.586639,245.771988 
	C396.425018,245.545547 396.237427,245.521484 395.508575,245.175812 
	C392.986298,243.875580 390.464050,242.575348 387.549042,240.839676 
	C387.014008,240.661469 386.478943,240.483261 385.414581,240.066803 
	C385.221130,240.063461 385.027649,240.060104 384.688354,239.763107 
	C384.476471,239.579285 384.284576,239.598190 383.398712,239.334671 
	C380.597015,238.898712 377.795288,238.462769 374.510834,237.438110 
	C372.340210,237.624176 370.169586,237.810257 367.150146,238.045807 
	C365.796051,238.302048 364.441925,238.558289 362.448975,238.711517 
	C361.293732,239.138062 360.138458,239.564606 358.250305,240.039673 
	C355.848816,241.105789 353.447357,242.171890 350.431335,243.217926 
	C349.658295,243.831696 348.885284,244.445480 348.038147,245.022308 
	C348.038147,245.022308 348.051666,245.104004 347.394531,245.170639 
	C345.968842,246.463562 344.543152,247.756485 342.502777,249.264328 
	C341.692261,250.251877 340.881775,251.239426 339.697815,252.329361 
	C339.451294,252.502762 339.375671,252.732437 338.915009,253.409485 
	C338.293762,254.321640 337.672485,255.233780 336.634491,256.265686 
	C336.342255,256.444366 336.249634,256.696442 335.851990,257.462799 
	C335.305695,258.657227 334.759430,259.851685 333.726288,261.418579 
	C333.575836,261.962433 333.425385,262.506317 333.005249,263.753448 
	C332.443420,265.595703 331.881592,267.437988 330.925629,269.832977 
	C330.639862,271.883209 330.354095,273.933472 329.884247,276.753052 
	C329.666168,278.117554 329.448120,279.482086 329.214691,280.942749 
	C327.940399,280.679016 327.012848,280.322815 326.084076,280.319489 
	C312.531830,280.270782 298.979187,280.232544 285.427673,280.334045 
	C284.463898,280.341248 283.508453,281.457184 282.277405,282.907532 
	C282.287018,285.551910 282.001831,288.244934 282.426941,290.820770 
	C282.649475,292.169220 284.118866,293.311890 285.476349,294.845184 
	C285.647797,294.789795 285.819244,294.734375 286.820068,294.838135 
	C287.925446,294.654327 289.030823,294.470490 290.836792,294.594666 
	C292.096649,294.472992 293.356506,294.351318 295.137848,294.498840 
	C295.717590,294.436462 296.297363,294.374115 297.002594,294.903809 
	C297.046021,295.290955 297.089447,295.678070 296.385345,296.186371 
	C294.273560,297.092224 292.161804,297.998077 289.152771,298.679596 
	C285.093201,298.193970 281.033661,297.708374 276.449677,296.749207 
	C274.740936,295.480804 273.032196,294.212433 271.418365,292.667053 
	C271.325195,292.435883 271.164307,292.370026 270.649536,291.796234 
	C269.644135,289.866425 268.638702,287.936615 267.761902,285.460175 
	C267.458527,284.991821 267.155182,284.523438 266.952271,283.156677 
	C266.937775,280.761200 266.923279,278.365692 267.304199,275.400024 
	C268.144226,273.249939 268.984222,271.099884 270.438080,268.538300 
	C270.648529,268.099731 270.858978,267.661194 271.118591,267.346954 
	C271.118591,267.346954 271.121948,267.458618 271.686432,266.862854 
	C280.305054,258.910522 289.413940,258.916199 297.962646,266.733154 
	C299.124115,267.795197 300.793762,268.895630 302.256409,268.935303 
	C310.180084,269.150299 318.112640,269.037262 326.799744,269.037262 
	C326.166046,266.639587 326.137451,264.855530 325.294586,263.632660 
	C321.663757,258.364960 318.572876,252.375320 313.877777,248.251038 
	C292.570923,229.534790 262.417511,236.746017 249.344833,257.711823 
	C242.167038,269.223480 241.787354,281.343933 245.398956,294.562683 
	C245.936539,295.364746 246.474136,296.166779 247.114273,297.638580 
	C247.758865,298.753296 248.403473,299.868042 249.105469,301.614502 
	C249.738876,302.404205 250.372299,303.193878 251.211121,304.671112 
	C251.399185,304.818909 251.587265,304.966675 251.629379,305.333405 
	C251.629379,305.333405 251.805359,305.530273 251.805359,305.530273 
	C251.805359,305.530273 252.058121,305.452820 252.181885,306.120850 
	C252.517624,306.397186 252.853378,306.673523 253.233749,307.401642 
	C253.395996,307.718353 253.651031,307.839111 254.265549,308.389557 
	C254.792709,308.809357 255.319870,309.229187 256.071472,310.224030 
	C258.062897,311.737762 260.054291,313.251526 262.437012,315.308441 
	C263.635315,315.836975 264.833618,316.365479 266.477661,317.467743 
	C274.605713,321.581970 283.188171,322.749329 292.670319,321.450104 
	C292.779816,321.317322 292.889282,321.184509 293.614349,321.153656 
	C295.395447,320.722412 297.176544,320.291168 299.659027,319.891693 
	C301.088623,319.213135 302.518250,318.534576 304.651398,317.801117 
	C310.963196,314.824310 316.403137,310.781891 320.814178,304.379028 
	C321.524048,303.181488 322.233887,301.983917 323.346741,300.668396 
	C323.617767,300.495819 323.720184,300.252289 324.230225,299.682404 
	C324.396698,299.098358 324.563171,298.514282 325.171204,297.575653 
	C325.286255,297.033295 325.401306,296.490906 325.930695,295.309204 
	C326.565125,292.859619 327.199524,290.410034 328.456207,287.520660 
	C329.027863,286.327545 329.599518,285.134399 330.183167,284.662903 
	C330.387573,285.088379 330.592010,285.513824 330.624542,286.485626 
	C330.802582,286.974823 330.980652,287.464020 331.135956,288.712311 
	C331.805847,290.793457 332.475739,292.874573 333.139740,295.628632 
	C333.536591,296.421021 333.933411,297.213409 334.521881,298.726501 
	C335.358948,299.935608 336.195984,301.144745 336.831451,302.230560 
	C336.831451,302.230560 337.079163,302.443878 337.017242,302.741211 
	C337.017242,302.741211 337.274536,302.902527 337.257019,303.506409 
	C337.847931,303.975433 338.438873,304.444427 339.235077,305.563110 
	C341.292206,307.682892 343.349304,309.802704 345.375549,312.280853 
	C345.375549,312.280853 345.648621,312.514679 345.648621,312.514679 
	C345.648621,312.514679 345.974426,312.362640 346.434143,312.759766 
	C346.635345,312.782562 346.836578,312.805389 347.340088,313.433197 
	C348.304199,313.935394 349.268341,314.437592 350.311249,315.303772 
	C350.311249,315.303772 350.600342,315.536926 350.600342,315.536926 
	C350.600342,315.536926 350.956299,315.431122 351.473694,315.951630 
	C353.456329,316.714050 355.438995,317.476501 357.931519,318.774170 
	C362.618469,319.472443 367.305389,320.170746 372.674683,320.984863 
	C373.129761,320.914246 373.584869,320.843628 374.619263,321.127472 
	C379.718414,319.660797 384.817596,318.194153 390.608734,316.701904 
	C393.408844,314.706665 396.208954,312.711426 399.615753,310.590424 
	C400.394592,309.661255 401.173462,308.732086 402.372772,307.699341 
	C402.661469,307.525787 402.764038,307.275848 403.250305,306.617279 
	C403.485748,306.254150 403.721222,305.891052 404.269592,305.513000 
	C404.488556,305.384369 404.548859,305.202972 405.115753,304.637115 
	C406.448029,301.772552 407.780273,298.907990 409.767334,295.736267 
	C410.464478,293.828888 411.161621,291.921478 411.933075,289.485687 
	C411.919403,289.308319 411.905731,289.130981 411.968231,288.977448 
	C411.968231,288.977448 411.949524,288.899872 412.400970,288.869141 
M236.590881,289.530640 
	C236.961563,289.345337 237.332260,289.160034 237.962189,288.559418 
	C237.962189,288.559418 238.031479,288.074768 238.613815,287.624359 
	C238.533508,286.426147 238.453201,285.227905 238.567795,283.314850 
	C238.507584,282.581787 238.447388,281.848724 238.713959,280.246826 
	C238.604614,277.789490 238.495285,275.332153 238.551437,272.293884 
	C238.470154,271.903351 238.388870,271.512817 238.585526,270.591583 
	C238.091400,270.325958 237.597290,270.060364 236.427048,269.288239 
	C230.953445,269.183472 225.479828,269.078705 219.902817,268.410278 
	C219.578125,267.945892 219.253418,267.481537 218.960175,266.250977 
	C218.934601,265.740967 218.909042,265.230957 219.087006,264.674469 
	C219.087006,264.674469 219.131638,264.404297 219.131638,264.404297 
	C219.131638,264.404297 218.879608,264.275085 218.954346,263.638275 
	C218.966339,263.424866 218.978333,263.211487 219.485489,262.688019 
	C219.981750,262.089020 220.478027,261.489990 221.908035,260.904144 
	C226.279633,260.896240 230.651215,260.888336 235.368805,261.451996 
	C237.018875,260.919281 238.668961,260.386536 240.750809,259.030334 
	C240.788361,256.870697 240.987991,254.698959 240.827972,252.554047 
	C240.542221,248.723373 240.039444,244.908890 239.601761,240.772186 
	C239.601761,240.772186 239.328262,240.614349 239.328262,240.614349 
	C239.328262,240.614349 239.067566,240.792389 238.387054,240.285141 
	C237.263672,240.275909 236.140305,240.266678 234.311676,240.092148 
	C233.144836,240.359634 231.977982,240.627121 230.030121,240.722626 
	C228.437302,240.769989 226.844467,240.817352 224.550751,240.535431 
	C223.031876,240.428528 221.512985,240.321625 219.171646,240.089752 
	C217.788422,240.130798 216.405212,240.171860 214.495071,240.045303 
	C214.325150,240.116684 214.155212,240.188065 213.229019,240.281815 
	C212.762589,240.470566 212.296158,240.659317 211.097458,240.562866 
	C210.064301,240.471008 209.031158,240.379150 207.133545,240.105698 
	C204.893784,240.209915 202.654007,240.314133 200.497696,240.414474 
	C200.497696,259.029755 200.497696,277.006042 200.269348,295.648468 
	C200.345154,296.105286 200.420975,296.562103 200.283508,297.744476 
	C200.355209,298.490204 200.426910,299.235901 200.270126,300.842773 
	C200.331635,303.207916 200.393158,305.573029 200.203186,308.837555 
	C200.203186,312.418243 200.203186,315.998932 200.203186,319.906494 
	C212.694427,319.906494 224.571106,319.789307 236.443130,319.972839 
	C240.369476,320.033539 241.541718,318.551331 240.772461,314.143036 
	C240.794815,310.388977 240.975021,306.625488 240.752457,302.886017 
	C240.676300,301.606415 239.590485,300.386902 238.557190,298.536285 
	C236.714371,298.723724 234.871552,298.911133 232.187103,299.081238 
	C230.784119,299.083801 229.381134,299.086365 227.478775,298.449219 
	C224.494370,298.095642 220.770477,300.354065 218.949554,295.143250 
	C219.105530,293.428436 219.261490,291.713623 219.446289,289.681946 
	C224.038345,289.681946 227.991135,289.681946 232.763580,289.911041 
	C233.865738,289.774719 234.967911,289.638397 236.590881,289.530640 
M100.534950,301.316437 
	C98.352791,301.138763 96.170639,300.961090 93.407547,300.331787 
	C92.928879,300.224670 92.450218,300.117523 91.925949,299.432281 
	C91.771309,299.090790 91.616661,298.749329 91.470947,297.852051 
	C91.361504,297.311279 91.252060,296.770508 91.462036,295.804565 
	C91.350204,295.135284 91.238373,294.465973 91.312096,293.059509 
	C91.267883,291.802063 91.223663,290.544617 91.497208,288.842407 
	C91.376633,288.155334 91.256058,287.468292 91.314751,285.950012 
	C91.240494,283.683441 91.166245,281.416870 91.417076,278.898376 
	C91.439896,278.763245 91.516624,278.607483 91.474411,278.497253 
	C91.384529,278.262482 91.232880,278.051392 91.285194,276.953918 
	C91.245522,273.390839 91.205841,269.827728 91.497177,265.963470 
	C91.372734,265.574799 91.248291,265.186096 91.327492,264.070282 
	C91.282120,262.817902 91.236748,261.565491 91.635025,259.990845 
	C91.659958,259.636475 91.684883,259.282074 92.575836,258.518677 
	C94.730988,258.623169 96.886139,258.727661 99.315979,259.365509 
	C99.903282,259.375946 100.490585,259.386383 101.689278,259.784088 
	C102.404411,259.883636 103.119553,259.983154 104.076424,260.510590 
	C104.076424,260.510590 104.539459,260.671051 104.539459,260.671051 
	C104.539459,260.671051 104.954361,260.410431 105.696251,260.669739 
	C106.470299,260.777222 107.244354,260.884705 108.228325,261.302765 
	C108.228325,261.302765 108.582932,261.422668 108.582932,261.422668 
	C108.582932,261.422668 108.951149,261.355377 109.559746,261.827667 
	C113.665672,263.911163 117.986847,265.663055 121.827141,268.155792 
	C127.598183,271.901764 128.332397,277.995911 124.223518,283.618347 
	C123.679016,284.363403 123.250755,285.193390 122.661186,286.160339 
	C123.413071,286.673584 123.926559,287.326111 124.460129,287.342987 
	C132.215012,287.587921 139.362946,278.970612 138.079056,271.153198 
	C136.516342,261.637909 129.725983,256.427216 121.765839,253.361969 
	C113.045013,250.003784 103.675171,248.356613 94.669571,245.688980 
	C93.031815,245.203857 91.148689,243.679764 90.471794,242.151276 
	C87.952774,236.463135 86.301506,230.313995 80.443459,226.223251 
	C79.601265,229.464081 78.850258,232.309769 78.122734,235.161438 
	C75.465446,245.577454 75.374374,245.110687 64.448875,247.307922 
	C52.578167,249.695267 41.005451,253.268494 32.274055,262.554535 
	C28.229496,266.856018 27.702013,272.962982 31.361303,277.466156 
	C38.445545,286.184082 47.304134,292.730896 57.426151,298.533264 
	C58.957474,299.236145 60.488796,299.939026 62.574169,301.071045 
	C64.038681,301.718048 65.503197,302.365082 67.161537,303.397644 
	C67.161537,303.397644 67.527252,303.625366 67.527252,303.625366 
	C67.527252,303.625366 67.952171,303.554474 68.490967,304.052734 
	C70.067070,304.677368 71.643173,305.302002 73.351128,306.274597 
	C73.528358,306.485199 73.752380,306.565948 74.586143,306.922455 
	C75.096855,307.622864 75.607574,308.323303 75.716873,309.595856 
	C75.640015,310.734039 75.563148,311.872253 75.253540,313.501678 
	C75.333672,313.664185 75.413795,313.826721 75.399452,314.662354 
	C77.283951,316.698608 79.168449,318.734833 81.382034,321.306549 
	C82.275085,321.752625 83.168129,322.198700 84.453003,322.942566 
	C84.453003,322.942566 84.937218,323.030487 85.170090,323.651428 
	C86.935249,324.631592 88.700401,325.611755 91.282356,327.045441 
	C91.282356,323.368164 90.930061,320.710541 91.400368,318.207489 
	C91.740570,316.396851 93.172844,314.791473 94.853989,313.456848 
	C97.244469,313.919006 99.634949,314.381165 102.527283,315.306458 
	C103.664581,315.329529 104.801888,315.352600 106.805206,315.776154 
	C112.509346,315.652527 118.213493,315.528931 124.622025,315.490692 
	C125.731712,315.267212 126.841400,315.043732 128.739471,314.825958 
	C130.473022,314.282013 132.206558,313.738068 134.279861,313.430878 
	C134.607361,313.424377 134.805450,313.260956 135.605728,312.871490 
	C136.744171,312.470917 137.882614,312.070312 139.497604,311.746948 
	C139.862823,311.686646 140.081039,311.474854 140.106247,311.043457 
	C140.106247,311.043457 140.069229,311.116882 140.841949,311.044067 
	C141.961884,310.418243 143.081802,309.792389 144.417236,309.369324 
	C144.653824,309.324554 144.766113,309.181824 145.458923,308.875397 
	C146.648132,308.111603 147.837341,307.347809 149.397385,306.628021 
	C149.661728,306.501953 149.767746,306.294800 150.375000,305.739349 
	C153.230820,303.063965 156.086639,300.388550 159.341431,297.705475 
	C159.648819,297.555054 159.717468,297.331421 160.025818,296.564484 
	C160.334610,295.980835 160.643387,295.397217 161.393448,294.728577 
	C161.707474,294.543976 161.793549,294.283905 162.147430,293.523651 
	C162.445663,292.716919 162.743912,291.910187 163.648865,290.751801 
	C164.663528,287.828064 165.678177,284.904358 166.880661,281.064331 
	C166.626221,276.052307 166.371796,271.040283 166.243286,265.377869 
	C165.758484,263.941193 165.273666,262.504547 164.872086,260.390198 
	C164.496826,259.617981 164.121582,258.845734 163.713058,257.365845 
	C162.750931,255.596695 161.788803,253.827545 160.774551,251.372192 
	C159.213272,249.245499 157.651993,247.118805 156.063705,244.360809 
	C155.359329,243.622299 154.654953,242.883789 153.714569,241.508743 
	C149.775589,237.696533 146.030533,233.656158 141.862488,230.113449 
	C127.389809,217.812149 110.606613,209.745880 92.512260,204.469986 
	C76.320351,199.748810 59.779205,197.491074 43.240311,202.389374 
	C38.096855,203.912720 33.125374,206.931091 28.874332,210.279617 
	C25.104847,213.248825 26.579184,218.274796 31.063152,218.711365 
	C34.964012,219.091125 38.988289,218.203201 43.793831,217.806458 
	C42.514664,215.424957 41.925381,214.327850 41.164455,212.911194 
	C43.212078,212.559967 45.117661,211.861984 46.971050,211.980453 
	C54.368988,212.453369 61.793453,212.867630 69.130501,213.871002 
	C92.486115,217.064941 113.326088,226.546188 131.394272,241.367218 
	C145.221252,252.709274 155.626511,266.227509 147.413635,286.159271 
	C147.006332,286.792236 146.599030,287.425201 145.638367,288.456055 
	C139.691498,292.293976 133.744614,296.131897 127.637207,299.748993 
	C127.405235,299.758087 127.294220,299.878845 126.423561,300.072449 
	C125.584175,300.306366 124.744797,300.540283 123.420105,300.506775 
	C122.995224,300.694611 122.570343,300.882446 121.301094,301.180939 
	C118.534248,301.546936 115.767395,301.912933 112.339966,302.108856 
	C111.893295,302.169342 111.446632,302.229858 110.125420,302.113312 
	C107.750343,302.105316 105.375267,302.097321 102.375107,301.862518 
	C101.934494,301.859253 101.493881,301.855988 100.534950,301.316437 
M437.757202,311.705200 
	C438.253571,311.522736 438.749939,311.340271 439.783508,311.442230 
	C440.368469,311.350433 440.953461,311.258606 441.847504,311.429108 
	C442.152130,311.507233 442.387787,311.412994 442.959717,311.436279 
	C443.422516,311.333496 443.885345,311.230743 444.766632,311.364746 
	C444.766632,311.364746 445.247467,311.365021 445.247467,311.365021 
	C445.247467,311.365021 445.666595,311.129395 446.031799,311.429932 
	C446.466003,311.329590 446.900208,311.229248 447.854858,311.366364 
	C448.220886,311.292023 448.586945,311.217682 449.306488,311.444855 
	C449.889343,311.346924 450.472168,311.248993 451.712036,311.358337 
	C452.141327,311.237183 452.570587,311.116058 453.555756,311.015076 
	C453.630951,310.680450 453.706177,310.345825 453.954193,309.348480 
	C453.933929,309.121094 453.913666,308.893677 454.087219,308.607849 
	C454.087219,308.607849 454.149841,308.343231 454.149841,308.343231 
	C454.149841,308.343231 453.924805,308.177338 454.119904,307.330963 
	C454.079285,305.885620 454.038635,304.440308 454.571838,302.446930 
	C454.569519,300.304413 454.567200,298.161865 454.823730,295.359558 
	C454.739014,294.902924 454.654297,294.446259 454.716797,293.253723 
	C454.661072,292.508118 454.605347,291.762482 454.826538,290.359650 
	C454.737640,289.903564 454.648743,289.447479 454.675537,288.205994 
	C454.472321,287.746216 454.269104,287.286469 454.187866,286.528473 
	C454.187866,286.528473 453.992828,286.271973 454.439056,285.505646 
	C454.948486,285.219757 455.457916,284.933899 456.497009,284.851624 
	C456.674500,284.786255 456.851990,284.720886 457.896698,284.750671 
	C458.999146,284.516541 460.101562,284.282410 461.919739,284.485596 
	C464.308594,284.509796 466.697449,284.533997 469.794281,284.404755 
	C470.867096,283.951263 471.939941,283.497772 473.605774,282.950745 
	C473.687531,282.845337 473.844360,282.733398 473.835907,282.635834 
	C473.816376,282.410583 473.716644,282.192322 473.562988,281.045105 
	C473.564972,276.698914 473.566986,272.352722 473.783722,267.454803 
	C473.528137,266.959625 473.272552,266.464447 472.750366,265.178528 
	C466.721436,264.651215 460.692535,264.123871 454.390381,263.572662 
	C454.290924,262.444305 454.073212,261.319122 454.114471,260.203522 
	C454.272705,255.926865 454.739105,251.648148 454.641968,247.380432 
	C454.581390,244.716461 455.844269,240.799637 451.412689,240.333313 
	C447.179474,239.887833 442.855225,239.942703 438.605194,240.250290 
	C437.373474,240.339432 436.259552,242.055893 434.593353,243.429077 
	C434.768829,244.605957 434.944336,245.782837 435.076996,247.773758 
	C435.090149,248.860291 435.103302,249.946823 434.502289,251.599380 
	C434.502289,255.662079 434.502289,259.724762 434.502289,264.294495 
	C429.578796,264.294495 425.278259,264.294495 420.214355,264.136169 
	C419.180420,265.041382 417.261658,265.942871 417.257843,266.852356 
	C417.235352,272.234833 417.657318,277.619141 417.902161,283.598816 
	C418.266876,283.689972 418.631561,283.781128 419.593811,284.118469 
	C420.024017,284.097290 420.454254,284.076141 421.368439,284.691101 
	C423.233307,284.656372 425.098206,284.621643 427.873718,284.773560 
	C430.145264,284.773560 432.416809,284.773560 435.259308,284.773560 
	C435.259308,290.455444 435.259308,295.717773 435.070770,301.727875 
	C435.133789,302.491119 435.196838,303.254395 435.118073,304.499115 
	C435.163696,304.660065 435.209351,304.821014 435.068146,305.835419 
	C435.260620,307.546997 435.453125,309.258545 435.632843,311.463257 
	C436.076752,311.532654 436.520660,311.602051 437.757202,311.705200 
M173.125046,313.820251 
	C173.225250,315.744415 173.325439,317.668579 173.417953,319.445038 
	C180.695786,319.445038 187.393799,319.445038 194.359741,319.445038 
	C194.359741,294.042755 194.379745,269.113190 194.297302,244.183960 
	C194.293411,243.006470 193.379456,241.831985 192.181290,240.290924 
	C191.128098,240.292938 190.074921,240.294952 188.502243,240.112152 
	C188.329788,240.175690 188.157333,240.239227 187.133606,240.149902 
	C186.019836,240.399414 184.906067,240.648926 183.519226,240.614655 
	C183.217804,240.534332 182.993774,240.631866 182.302856,240.722839 
	C181.737076,240.629837 181.171295,240.536835 180.118958,240.121826 
	C179.742767,240.167953 179.366592,240.214096 178.337662,240.129135 
	C177.897751,240.169296 177.457825,240.209457 176.395538,240.061417 
	C175.833466,240.319824 175.271393,240.578247 173.991653,241.168274 
	C173.698578,242.091339 173.149399,243.014725 173.150513,243.937439 
	C173.169907,259.955627 173.256897,275.973694 173.138596,292.907867 
	C173.200195,297.600830 173.261795,302.293793 173.134201,307.824615 
	C173.195297,309.536682 173.256378,311.248749 173.125046,313.820251 
M159.781586,205.311432 
	C153.201050,213.610031 152.916840,217.273834 157.702530,226.371750 
	C158.354752,227.611679 158.269226,229.489716 157.950943,230.946838 
	C156.572906,237.255722 157.793274,241.487823 161.513245,242.431061 
	C165.513458,243.445358 167.989151,240.824051 169.479904,233.744507 
	C178.120926,234.592941 186.380417,233.398300 192.912842,226.969345 
	C197.947861,222.014084 201.402145,216.219025 199.365372,208.775223 
	C197.469055,201.844772 192.386307,197.673065 185.644196,196.568069 
	C176.015533,194.989990 167.180679,197.273376 159.781586,205.311432 
z"/>
<path fill="#F6F6F7" opacity="1.000000" stroke="none" 
	d="
M327.833923,287.960449 
	C327.199524,290.410034 326.565125,292.859619 325.471466,295.610748 
	C324.677765,295.950714 324.343262,295.989166 323.806763,295.792114 
	C320.511841,297.218231 317.526733,299.152710 314.283630,300.434204 
	C312.480438,301.146667 310.124268,300.371063 308.228821,300.953918 
	C300.004028,303.483063 291.776611,305.166443 283.173859,303.023376 
	C275.549500,301.124146 274.793182,300.662628 271.970825,307.766083 
	C265.714996,303.115234 258.711670,301.711426 251.038330,302.675903 
	C250.315201,301.904968 249.681625,301.443848 249.048065,300.982758 
	C248.403473,299.868042 247.758865,298.753296 247.080276,296.981628 
	C246.518295,295.535645 245.990311,294.746552 245.462326,293.957489 
	C241.787354,281.343933 242.167038,269.223480 249.344833,257.711823 
	C262.417511,236.746017 292.570923,229.534790 313.877777,248.251038 
	C318.572876,252.375320 321.663757,258.364960 325.294586,263.632660 
	C326.137451,264.855530 326.166046,266.639587 326.799744,269.037262 
	C318.112640,269.037262 310.180084,269.150299 302.256409,268.935303 
	C300.793762,268.895630 299.124115,267.795197 297.962646,266.733154 
	C289.413940,258.916199 280.305054,258.910522 271.401550,267.121429 
	C271.116699,267.380005 271.069427,267.222626 271.069427,267.222626 
	C270.858978,267.661194 270.648529,268.099731 269.800629,268.822571 
	C268.411713,271.394623 267.660248,273.682404 266.908752,275.970215 
	C266.923279,278.365692 266.937775,280.761200 266.702698,283.764221 
	C266.846527,284.916779 267.239899,285.461792 267.633270,286.006805 
	C268.638702,287.936615 269.644135,289.866425 270.794708,292.252106 
	C270.939880,292.707977 271.323456,292.944031 271.323456,292.944031 
	C273.032196,294.212433 274.740936,295.480804 276.791199,297.342834 
	C281.257477,300.675629 285.569794,300.910461 290.050018,298.903931 
	C292.161804,297.998077 294.273560,297.092224 297.073425,296.285950 
	C298.744751,296.256622 299.727966,296.127716 300.711212,295.998810 
	C300.535553,295.127930 300.359894,294.257019 300.184204,293.386169 
	C299.081848,293.694702 297.979492,294.003235 296.877106,294.311768 
	C296.297363,294.374115 295.717590,294.436462 294.503174,294.251373 
	C292.624390,294.098145 291.380310,294.192383 290.136200,294.286621 
	C289.030823,294.470490 287.925446,294.654327 286.334564,294.607178 
	C285.574432,294.433289 285.299805,294.490387 285.025177,294.547516 
	C284.118866,293.311890 282.649475,292.169220 282.426941,290.820770 
	C282.001831,288.244934 282.287018,285.551910 282.846191,282.465393 
	C297.949280,282.023224 312.483582,282.023224 326.714294,282.023224 
	C327.132660,284.241699 327.483307,286.101074 327.833923,287.960449 
z"/>
<path fill="#F9F9F9" opacity="1.000000" stroke="none" 
	d="
M374.993591,238.026794 
	C377.795288,238.462769 380.597015,238.898712 383.828064,239.713470 
	C384.257385,240.092255 384.552551,240.183823 384.552551,240.183823 
	C384.552551,240.183823 384.834198,240.056763 384.834198,240.056763 
	C385.027649,240.060104 385.221130,240.063461 385.702515,240.449615 
	C386.640900,240.979996 387.291351,241.127548 387.941772,241.275116 
	C390.464050,242.575348 392.986298,243.875580 395.787109,245.585602 
	C396.065613,245.995392 396.314758,246.160294 396.314758,246.160294 
	C396.314758,246.160294 396.606049,246.094193 396.606049,246.094193 
	C403.752319,251.262421 408.906860,257.917145 411.532074,266.861511 
	C411.816864,268.601715 412.277283,269.808960 412.737732,271.016174 
	C412.809235,272.085388 412.880676,273.154602 412.704773,274.837128 
	C412.819031,276.964661 413.180664,278.478912 413.542297,279.993134 
	C413.317596,282.404297 413.092896,284.815460 412.510956,287.680542 
	C411.937775,288.350189 411.869690,288.605316 411.949524,288.899872 
	C411.949524,288.899872 411.968231,288.977448 411.684967,289.017517 
	C411.308319,289.195496 411.118042,289.438599 411.136200,289.455322 
	C411.359344,289.660797 411.612976,289.833160 411.858734,290.014069 
	C411.161621,291.921478 410.464478,293.828888 409.004700,295.877594 
	C406.436249,296.139984 403.591949,295.589447 403.004242,296.498291 
	C400.447693,300.451294 396.388245,299.649475 392.857330,300.562775 
	C388.618835,301.659088 384.424286,302.935028 380.163544,303.931427 
	C378.053741,304.424774 375.838165,304.466034 373.040405,304.783295 
	C369.759857,304.004181 365.710541,302.918335 361.598297,302.185944 
	C360.898285,302.061249 359.710754,303.303925 359.123810,304.169434 
	C357.325500,306.820953 355.652679,306.793335 353.903015,304.218628 
	C352.078400,301.533630 349.879517,301.812958 347.454956,303.299530 
	C346.392914,303.950714 345.260193,304.486603 343.793488,305.270508 
	C343.221252,303.280457 342.799347,301.813049 342.088531,299.340942 
	C340.690186,300.999634 339.844666,302.002594 338.711456,302.991760 
	C338.040710,302.952789 337.657623,302.927673 337.274536,302.902527 
	C337.274536,302.902527 337.017242,302.741211 337.048279,302.573608 
	C337.079346,302.405975 337.033020,302.353882 337.033020,302.353882 
	C336.195984,301.144745 335.358948,299.935608 334.740906,298.290527 
	C337.137726,295.146790 335.003235,295.137909 333.145630,294.955719 
	C332.475739,292.874573 331.805847,290.793457 331.350372,288.211884 
	C331.308655,287.120728 331.052551,286.530029 330.796417,285.939301 
	C330.592010,285.513824 330.387573,285.088379 330.447723,284.016052 
	C330.780365,280.899780 330.848450,278.430389 330.956207,275.537048 
	C331.103821,273.168823 331.211792,271.224548 331.319763,269.280243 
	C331.881592,267.437988 332.443420,265.595703 333.404083,263.372772 
	C333.939667,262.343445 334.076416,261.694763 334.213135,261.046112 
	C334.759430,259.851685 335.305695,258.657227 336.309784,257.185608 
	C337.022095,256.713776 337.116669,256.459595 337.051208,256.145935 
	C337.672485,255.233780 338.293762,254.321640 339.382629,253.170044 
	C340.082764,252.745941 340.156464,252.511398 340.071259,252.226974 
	C340.881775,251.239426 341.692261,250.251877 343.158936,249.161377 
	C345.227264,247.740280 346.639465,246.422150 348.051666,245.104004 
	C348.051666,245.104004 348.038147,245.022308 348.404785,245.056488 
	C349.529602,244.473129 350.287750,243.855576 351.045898,243.238007 
	C353.447357,242.171890 355.848816,241.105789 358.945953,240.072296 
	C360.790344,239.674774 361.939087,239.244644 363.087830,238.814514 
	C364.441925,238.558289 365.796051,238.302048 367.844666,238.280014 
	C370.690674,238.351746 372.842133,238.189270 374.993591,238.026794 
M386.153748,267.262665 
	C386.043915,266.978912 385.841614,266.874634 384.949127,266.549042 
	C384.326599,265.832672 383.704071,265.116302 382.992065,264.024841 
	C382.788177,263.800201 382.552094,263.758606 381.549622,263.736359 
	C372.466217,259.036285 364.856537,260.015533 358.414734,266.713501 
	C352.793274,272.558533 352.188049,281.895355 356.177032,289.884521 
	C359.765167,297.070923 366.201202,298.022583 373.343750,299.400543 
	C375.231567,298.665894 377.119415,297.931213 379.495087,296.704010 
	C385.167480,293.798248 388.495148,289.093811 390.520264,282.666748 
	C390.385010,281.784027 390.249756,280.901276 390.004089,279.199158 
	C390.018494,278.130127 390.032898,277.061127 390.477356,275.693787 
	C390.081329,275.105469 389.685333,274.517151 389.034149,273.281921 
	C388.370758,271.819916 387.707367,270.357880 387.036407,268.427673 
	C386.922241,268.087616 386.685974,267.910339 386.122620,267.844574 
	C386.122620,267.844574 386.113556,267.633484 386.153748,267.262665 
z"/>
<path fill="#F2F2F2" opacity="1.000000" stroke="none" 
	d="
M91.166168,266.264648 
	C91.205841,269.827728 91.245522,273.390839 91.099976,277.721222 
	C90.973831,278.709106 91.032906,278.929688 91.091988,279.150299 
	C91.166245,281.416870 91.240494,283.683441 91.094559,286.778320 
	C90.976051,288.166840 91.077744,288.726990 91.179443,289.287170 
	C91.223663,290.544617 91.267883,291.802063 91.086700,293.827148 
	C90.955078,295.139740 91.048851,295.684753 91.142624,296.229736 
	C91.252060,296.770508 91.361504,297.311279 91.343727,298.437744 
	C91.468185,299.352417 91.719864,299.681396 91.971542,300.010406 
	C92.450218,300.117523 92.928879,300.224670 93.702759,300.924042 
	C94.301788,302.580566 94.554619,304.551941 94.917122,304.572296 
	C99.925674,304.853912 104.950287,304.922119 109.967155,304.831451 
	C110.326622,304.824921 110.656387,303.175751 110.999969,302.290344 
	C111.446632,302.229858 111.893295,302.169342 112.727020,302.544250 
	C114.065247,303.928253 114.978828,305.650970 115.973732,305.699280 
	C122.285248,306.005798 128.620804,306.132355 134.936081,305.930969 
	C138.858398,305.805878 140.399628,307.364899 140.069229,311.116882 
	C140.069229,311.116882 140.106247,311.043457 139.903931,311.079346 
	C139.390503,311.196655 139.163651,311.381470 139.021042,311.669708 
	C137.882614,312.070312 136.744171,312.470917 135.035233,312.799500 
	C134.464737,312.727478 134.025528,312.585510 133.889862,312.244324 
	C132.858170,311.601685 131.964645,311.047638 131.065720,311.038788 
	C123.861061,310.967621 116.645752,310.796753 109.456558,311.137909 
	C107.586449,311.226654 105.796860,313.012207 103.689247,314.031189 
	C102.947289,314.310455 102.486366,314.576904 102.025436,314.843323 
	C99.634949,314.381165 97.244469,313.919006 94.306625,313.011719 
	C92.504181,312.361450 91.249084,312.156342 89.884644,311.740509 
	C89.573372,311.271515 89.315651,311.094543 88.913330,310.614624 
	C85.215813,310.154877 81.607109,310.079254 77.845581,309.764709 
	C77.167938,309.358429 76.643112,309.191071 76.118286,309.023712 
	C75.607574,308.323303 75.096855,307.622864 74.263168,306.525085 
	C73.748398,305.886688 73.508095,305.819641 73.219284,305.926636 
	C71.643173,305.302002 70.067070,304.677368 68.109299,303.636444 
	C67.504387,303.041077 67.251076,302.971741 66.967712,303.012115 
	C65.503197,302.365082 64.038681,301.718048 62.225384,300.539612 
	C60.317467,299.317505 58.758339,298.626831 57.199203,297.936157 
	C47.304134,292.730896 38.445545,286.184082 31.361303,277.466156 
	C27.702013,272.962982 28.229496,266.856018 32.274055,262.554535 
	C41.005451,253.268494 52.578167,249.695267 64.448875,247.307922 
	C75.374374,245.110687 75.465446,245.577454 78.122734,235.161438 
	C78.850258,232.309769 79.601265,229.464081 80.443459,226.223251 
	C86.301506,230.313995 87.952774,236.463135 90.471794,242.151276 
	C91.148689,243.679764 93.031815,245.203857 94.669571,245.688980 
	C103.675171,248.356613 113.045013,250.003784 121.765839,253.361969 
	C129.725983,256.427216 136.516342,261.637909 138.079056,271.153198 
	C139.362946,278.970612 132.215012,287.587921 124.460129,287.342987 
	C123.926559,287.326111 123.413071,286.673584 122.661186,286.160339 
	C123.250755,285.193390 123.679016,284.363403 124.223518,283.618347 
	C128.332397,277.995911 127.598183,271.901764 121.827141,268.155792 
	C117.986847,265.663055 113.665672,263.911163 109.151489,261.432800 
	C108.510963,260.874359 108.269356,260.859100 108.018402,260.992188 
	C107.244354,260.884705 106.470299,260.777222 105.183838,260.377258 
	C104.392914,259.935638 104.113998,259.934967 103.834686,260.082703 
	C103.119553,259.983154 102.404411,259.883636 101.331390,259.345154 
	C100.329430,258.881500 99.685356,258.856812 99.041290,258.832153 
	C96.886139,258.727661 94.730988,258.623169 91.893883,258.868286 
	C91.205078,259.582977 91.198227,259.948029 91.191376,260.313110 
	C91.236748,261.565491 91.282120,262.817902 91.142944,264.803436 
	C91.027649,265.779266 91.096909,266.021942 91.166168,266.264648 
M54.311966,285.969574 
	C54.311966,285.969574 54.582352,286.035034 55.324245,286.194031 
	C60.574883,288.650635 65.825523,291.107208 71.260689,293.823853 
	C71.431732,293.967010 71.628792,294.037933 72.582283,294.095306 
	C73.047997,294.221588 73.513710,294.347900 74.141891,295.086029 
	C74.934143,295.210175 75.726395,295.334290 76.518646,295.458405 
	C76.364723,294.644318 76.210800,293.830261 75.946503,292.118561 
	C75.978073,289.408112 76.009644,286.697632 76.614243,283.385284 
	C76.380920,276.914673 76.147606,270.444061 75.897118,263.117340 
	C75.947067,261.406677 75.997017,259.696014 76.507233,257.505890 
	C73.336632,254.482712 70.196541,256.002014 66.220032,257.851532 
	C56.590332,258.617767 47.171768,260.262909 38.801117,265.444336 
	C34.137371,268.331177 33.883053,270.711975 37.724918,274.451782 
	C39.962326,276.629761 42.580147,278.416931 45.205967,280.723816 
	C45.394722,280.923126 45.626350,281.024872 46.621056,281.126556 
	C49.160046,282.699799 51.699036,284.273010 54.311966,285.969574 
z"/>
<path fill="#F4F3F4" opacity="1.000000" stroke="none" 
	d="
M140.455597,311.080475 
	C140.399628,307.364899 138.858398,305.805878 134.936081,305.930969 
	C128.620804,306.132355 122.285248,306.005798 115.973732,305.699280 
	C114.978828,305.650970 114.065247,303.928253 113.057312,302.629303 
	C115.767395,301.912933 118.534248,301.546936 121.951370,301.207153 
	C123.036240,301.080322 123.470833,300.927277 123.905426,300.774231 
	C124.744797,300.540283 125.584175,300.306366 126.955933,300.162415 
	C127.488304,300.252350 127.797752,299.969849 127.797745,299.969849 
	C133.744614,296.131897 139.691498,292.293976 146.221558,288.200378 
	C147.200333,287.289825 147.595932,286.634888 147.991531,285.979980 
	C155.626511,266.227509 145.221252,252.709274 131.394272,241.367218 
	C113.326088,226.546188 92.486115,217.064941 69.130501,213.871002 
	C61.793453,212.867630 54.368988,212.453369 46.971050,211.980453 
	C45.117661,211.861984 43.212078,212.559967 41.164455,212.911194 
	C41.925381,214.327850 42.514664,215.424957 43.793831,217.806458 
	C38.988289,218.203201 34.964012,219.091125 31.063152,218.711365 
	C26.579184,218.274796 25.104847,213.248825 28.874332,210.279617 
	C33.125374,206.931091 38.096855,203.912720 43.240311,202.389374 
	C59.779205,197.491074 76.320351,199.748810 92.512260,204.469986 
	C110.606613,209.745880 127.389809,217.812149 141.862488,230.113449 
	C146.030533,233.656158 149.775589,237.696533 153.838287,242.176346 
	C154.671585,243.560013 155.381149,244.276062 156.090714,244.992111 
	C157.651993,247.118805 159.213272,249.245499 160.581604,251.927628 
	C161.507874,254.346542 162.627106,256.210022 163.746323,258.073517 
	C164.121582,258.845734 164.496826,259.617981 164.623749,260.929779 
	C164.956070,262.988983 165.536713,264.508636 166.117355,266.028259 
	C166.371796,271.040283 166.626221,276.052307 166.450562,281.613708 
	C165.027695,285.143188 164.034927,288.123322 163.042145,291.103455 
	C162.743912,291.910187 162.445663,292.716919 161.728638,293.830048 
	C161.102066,294.315399 160.982849,294.541107 160.952164,294.813568 
	C160.643387,295.397217 160.334610,295.980835 159.639771,296.863953 
	C159.083099,297.308777 158.979355,297.492035 158.942459,297.713165 
	C156.086639,300.388550 153.230820,303.063965 149.888657,305.910156 
	C149.198746,306.190125 149.073502,306.357819 149.026550,306.583984 
	C147.837341,307.347809 146.648132,308.111603 145.000763,308.903809 
	C144.542603,308.932190 144.201736,309.166565 144.201721,309.166565 
	C143.081802,309.792389 141.961884,310.418243 140.455597,311.080475 
M136.516342,298.417633 
	C136.516342,298.417633 136.577377,298.522186 136.516342,298.417633 
z"/>
<path fill="#FAFAFA" opacity="1.000000" stroke="none" 
	d="
M235.016922,240.257446 
	C236.140305,240.266678 237.263672,240.275909 238.757523,240.671631 
	C239.127991,241.058121 239.371384,241.180939 239.371384,241.180939 
	C239.371384,241.180939 239.627411,241.087646 239.627411,241.087646 
	C240.039444,244.908890 240.542221,248.723373 240.827972,252.554047 
	C240.987991,254.698959 240.788361,256.870697 240.181915,259.445984 
	C238.082947,260.201202 236.552872,260.540802 235.022812,260.880402 
	C230.651215,260.888336 226.279633,260.896240 221.257965,260.686584 
	C220.068710,261.312073 219.529526,262.155090 218.990326,262.998108 
	C218.978333,263.211487 218.966339,263.424866 218.836090,264.068817 
	C218.717850,264.499359 218.883484,264.720947 218.883484,264.720947 
	C218.909042,265.230957 218.934601,265.740967 218.733063,266.832092 
	C218.615173,268.123993 218.724380,268.834808 218.833588,269.545593 
	C219.224472,269.355042 219.615341,269.164490 220.006226,268.973938 
	C225.479828,269.078705 230.953445,269.183472 236.807831,269.780426 
	C237.561600,270.555847 237.934586,270.839050 238.307587,271.122284 
	C238.388870,271.512817 238.470154,271.903351 238.166870,272.755371 
	C237.983932,275.849792 238.185562,278.482727 238.387177,281.115662 
	C238.447388,281.848724 238.507584,282.581787 238.280396,283.896240 
	C237.926331,285.250183 237.859695,286.022705 237.463593,286.929779 
	C235.404053,287.936890 233.673981,288.809418 231.943909,289.681946 
	C227.991135,289.681946 224.038345,289.681946 219.446289,289.681946 
	C219.261490,291.713623 219.105530,293.428436 218.703247,295.760101 
	C218.000488,297.215088 217.544052,298.053223 216.880432,299.150757 
	C214.880203,298.976135 213.048294,298.065155 211.302216,298.207428 
	C207.676895,298.502869 204.097107,299.357086 200.498611,299.981628 
	C200.426910,299.235901 200.355209,298.490204 200.689758,297.374817 
	C201.598892,296.570984 202.101776,296.136780 202.604675,295.702606 
	C201.902344,295.462555 201.200012,295.222473 200.497696,294.982361 
	C200.497696,277.006042 200.497696,259.029755 200.497696,240.414474 
	C202.654007,240.314133 204.893784,240.209915 207.749054,240.436432 
	C209.519623,240.794128 210.674667,240.821091 211.829727,240.848053 
	C212.296158,240.659317 212.762589,240.470566 213.699554,240.426376 
	C214.454041,240.451599 214.738022,240.332260 215.021988,240.212921 
	C216.405212,240.171860 217.788422,240.130798 219.878830,240.400009 
	C222.141220,240.761749 223.696442,240.813232 225.251648,240.864716 
	C226.844467,240.817352 228.437302,240.769989 230.779572,240.932617 
	C232.691666,240.847534 233.854294,240.552490 235.016922,240.257446 
z"/>
<path fill="#F7F7F7" opacity="1.000000" stroke="none" 
	d="
M435.091614,243.026352 
	C436.259552,242.055893 437.373474,240.339432 438.605194,240.250290 
	C442.855225,239.942703 447.179474,239.887833 451.412689,240.333313 
	C455.844269,240.799637 454.581390,244.716461 454.641968,247.380432 
	C454.739105,251.648148 454.272705,255.926865 454.114471,260.203522 
	C454.073212,261.319122 454.290924,262.444305 454.390381,263.572662 
	C460.692535,264.123871 466.721436,264.651215 472.826202,265.857605 
	C473.124359,267.026642 473.346680,267.516571 473.569000,268.006531 
	C473.566986,272.352722 473.564972,276.698914 473.414246,281.622925 
	C473.077911,282.450958 472.993652,282.732117 473.012756,283.044250 
	C471.939941,283.497772 470.867096,283.951263 469.278748,284.133850 
	C466.243469,283.924713 463.723724,283.986511 461.204010,284.048279 
	C460.101562,284.282410 458.999146,284.516541 457.387085,284.516235 
	C456.574097,284.403900 456.270691,284.525940 455.967316,284.648010 
	C455.457916,284.933899 454.948486,285.219757 454.143219,285.947937 
	C453.787750,286.610565 453.860565,286.756073 454.065857,286.826721 
	C454.269104,287.286469 454.472321,287.746216 454.404602,288.737701 
	C454.272339,289.851898 454.410980,290.434387 454.549622,291.016876 
	C454.605347,291.762482 454.661072,292.508118 454.424622,293.757874 
	C454.276611,294.847809 454.420746,295.433594 454.564880,296.019348 
	C454.567200,298.161865 454.569519,300.304413 454.069092,302.433655 
	C447.739258,298.441742 441.410492,300.839600 435.259308,300.980072 
	C435.259308,295.717773 435.259308,290.455444 435.259308,284.773560 
	C432.416809,284.773560 430.145264,284.773560 427.116364,284.442078 
	C424.534149,284.092072 422.709320,284.073517 420.884460,284.054962 
	C420.454254,284.076141 420.024017,284.097290 419.169220,283.792847 
	C418.529388,283.213531 418.257782,283.058716 417.929749,283.002838 
	C417.657318,277.619141 417.235352,272.234833 417.257843,266.852356 
	C417.261658,265.942871 419.180420,265.041382 420.715942,264.586121 
	C425.370514,265.305542 429.522278,265.692352 433.677551,265.734924 
	C434.414307,265.742493 435.810699,264.310852 435.803345,263.554504 
	C435.762604,259.378967 435.381073,255.206726 435.116455,251.033356 
	C435.103302,249.946823 435.090149,248.860291 435.345367,247.156326 
	C435.439697,245.368042 435.265656,244.197205 435.091614,243.026352 
z"/>
<path fill="#EFEFF0" opacity="1.000000" stroke="none" 
	d="
M160.029266,205.053284 
	C167.180679,197.273376 176.015533,194.989990 185.644196,196.568069 
	C192.386307,197.673065 197.469055,201.844772 199.365372,208.775223 
	C201.402145,216.219025 197.947861,222.014084 192.912842,226.969345 
	C186.380417,233.398300 178.120926,234.592941 169.479904,233.744507 
	C167.989151,240.824051 165.513458,243.445358 161.513245,242.431061 
	C157.793274,241.487823 156.572906,237.255722 157.950943,230.946838 
	C158.269226,229.489716 158.354752,227.611679 157.702530,226.371750 
	C152.916840,217.273834 153.201050,213.610031 160.029266,205.053284 
M169.174393,207.985016 
	C160.752258,211.838867 158.755188,214.753815 161.967606,219.037079 
	C164.751205,215.414322 167.493439,211.845398 170.691589,208.120758 
	C170.934296,207.932251 171.176987,207.743744 171.419693,207.555237 
	C170.902008,207.648819 170.384308,207.742401 169.174393,207.985016 
M176.759705,216.461288 
	C175.691925,218.495636 174.624161,220.529968 173.237137,223.172592 
	C181.508774,223.178589 187.783691,221.051697 192.134705,214.964615 
	C192.941467,213.835999 193.277374,211.501465 192.634842,210.464294 
	C192.056503,209.530746 189.484711,208.870392 188.404709,209.382156 
	C184.505951,211.229599 180.865662,213.622498 176.759705,216.461288 
z"/>
<path fill="#FAFAFA" opacity="1.000000" stroke="none" 
	d="
M189.021729,240.296936 
	C190.074921,240.294952 191.128098,240.292938 192.553482,240.899261 
	C192.921753,259.668060 192.917831,277.828522 192.574310,295.921265 
	C191.493866,294.703674 190.752991,293.553802 190.025757,292.425049 
	C184.680115,294.185516 179.373749,298.146515 174.294510,292.072052 
	C174.148941,291.897949 173.658691,292.012054 173.329147,291.991791 
	C173.256897,275.973694 173.169907,259.955627 173.150513,243.937439 
	C173.149399,243.014725 173.698578,242.091339 174.661652,241.092133 
	C175.893753,240.760544 176.455841,240.505081 177.017914,240.249634 
	C177.457825,240.209457 177.897751,240.169296 178.898468,240.392761 
	C179.841354,240.585541 180.223434,240.514694 180.605515,240.443848 
	C181.171295,240.536835 181.737076,240.629837 182.720718,240.924271 
	C183.406433,241.193512 183.624344,241.117752 183.792297,240.898422 
	C184.906067,240.648926 186.019836,240.399414 187.640793,240.399734 
	C188.439224,240.532028 188.730469,240.414490 189.021729,240.296936 
z"/>
<path fill="#F4F3F4" opacity="1.000000" stroke="none" 
	d="
M251.127914,302.985779 
	C258.711670,301.711426 265.714996,303.115234 271.970825,307.766083 
	C274.793182,300.662628 275.549500,301.124146 283.173859,303.023376 
	C291.776611,305.166443 300.004028,303.483063 308.228821,300.953918 
	C310.124268,300.371063 312.480438,301.146667 314.283630,300.434204 
	C317.526733,299.152710 320.511841,297.218231 323.813721,296.061890 
	C324.258392,297.021576 324.494019,297.475891 324.729645,297.930237 
	C324.563171,298.514282 324.396698,299.098358 323.761810,299.890869 
	C323.072571,300.275269 322.956024,300.504272 322.943756,300.786377 
	C322.233887,301.983917 321.524048,303.181488 320.261139,304.664307 
	C315.334595,306.168579 309.538605,304.719910 308.211548,311.224365 
	C302.478973,311.500275 296.208679,308.677856 292.523438,315.305908 
	C289.359375,313.207123 267.505585,311.219299 264.499817,312.671692 
	C264.190643,312.821106 264.168793,313.565094 263.691589,314.011597 
	C262.944916,313.930328 262.520233,313.870605 262.058685,313.451721 
	C261.009583,310.069000 259.806427,307.387848 255.847031,309.648987 
	C255.319870,309.229187 254.792709,308.809357 254.076843,307.876343 
	C253.720444,307.114990 253.487442,306.977203 253.189117,306.949860 
	C252.853378,306.673523 252.517624,306.397186 252.121613,305.699219 
	C252.061325,305.277557 251.775330,305.114441 251.775330,305.114441 
	C251.587265,304.966675 251.399185,304.818909 251.144745,304.078613 
	C251.094894,303.319305 251.111404,303.152557 251.127914,302.985779 
M306.195435,308.593170 
	C306.199768,308.210632 306.204071,307.828094 306.208405,307.445526 
	C306.049774,307.443909 305.753265,307.431549 305.752441,307.442200 
	C305.722870,307.822876 305.720886,308.205688 306.195435,308.593170 
z"/>
<path fill="#F2F2F2" opacity="1.000000" stroke="none" 
	d="
M338.999115,303.005585 
	C339.844666,302.002594 340.690186,300.999634 342.088531,299.340942 
	C342.799347,301.813049 343.221252,303.280457 343.793488,305.270508 
	C345.260193,304.486603 346.392914,303.950714 347.454956,303.299530 
	C349.879517,301.812958 352.078400,301.533630 353.903015,304.218628 
	C355.652679,306.793335 357.325500,306.820953 359.123810,304.169434 
	C359.710754,303.303925 360.898285,302.061249 361.598297,302.185944 
	C365.710541,302.918335 369.759857,304.004181 373.040405,304.783295 
	C375.838165,304.466034 378.053741,304.424774 380.163544,303.931427 
	C384.424286,302.935028 388.618835,301.659088 392.857330,300.562775 
	C396.388245,299.649475 400.447693,300.451294 403.004242,296.498291 
	C403.591949,295.589447 406.436249,296.139984 408.677307,296.031189 
	C407.780273,298.907990 406.448029,301.772552 404.674347,304.870117 
	C404.097321,305.216431 404.005249,305.358032 403.956665,305.527924 
	C403.721222,305.891052 403.485748,306.254150 402.791321,306.874390 
	C402.118835,307.306122 401.992157,307.529938 401.952332,307.802917 
	C401.173462,308.732086 400.394592,309.661255 399.256348,310.298889 
	C396.920654,309.561310 394.961151,308.925629 392.961060,308.749084 
	C391.957275,308.660492 390.468170,310.043427 389.900665,309.676086 
	C385.394714,306.759674 381.717926,310.667603 377.638336,310.964600 
	C373.790497,311.244720 369.950897,312.582642 366.155243,312.409973 
	C360.743195,312.163727 355.387665,310.826599 349.974213,310.307739 
	C349.084076,310.222473 348.020966,311.942505 347.037811,312.828186 
	C346.836578,312.805389 346.635345,312.782562 346.180359,312.418488 
	C345.791779,311.895752 345.618378,311.844177 345.406433,311.922485 
	C343.349304,309.802704 341.292206,307.682892 339.132446,304.920166 
	C339.019562,303.853333 339.009338,303.429474 338.999115,303.005585 
z"/>
<path fill="#F4F3F4" opacity="1.000000" stroke="none" 
	d="
M200.384369,300.412201 
	C204.097107,299.357086 207.676895,298.502869 211.302216,298.207428 
	C213.048294,298.065155 214.880203,298.976135 217.273956,299.223511 
	C221.242508,299.054230 224.610321,299.071564 227.978149,299.088928 
	C229.381134,299.086365 230.784119,299.083801 232.851578,299.354065 
	C235.332687,299.464569 237.149338,299.302277 238.965973,299.139954 
	C239.590485,300.386902 240.676300,301.606415 240.752457,302.886017 
	C240.975021,306.625488 240.794815,310.388977 240.353500,314.440308 
	C237.444534,312.378876 235.839554,309.842712 230.938263,311.234985 
	C228.142914,312.029022 224.393341,311.140442 221.158722,312.893616 
	C220.280792,313.369476 218.675537,312.443420 217.391296,312.242767 
	C215.164093,311.894775 212.932800,311.556641 210.692551,311.312042 
	C207.032852,310.912476 202.419510,313.469940 200.454666,307.938171 
	C200.393158,305.573029 200.331635,303.207916 200.384369,300.412201 
z"/>
<path fill="#E0E0E1" opacity="1.000000" stroke="none" 
	d="
M264.013611,314.033173 
	C264.168793,313.565094 264.190643,312.821106 264.499817,312.671692 
	C267.505585,311.219299 289.359375,313.207123 292.523438,315.305908 
	C296.208679,308.677856 302.478973,311.500275 308.211548,311.224365 
	C309.538605,304.719910 315.334595,306.168579 320.039429,304.944763 
	C316.403137,310.781891 310.963196,314.824310 304.061768,317.587708 
	C301.967285,318.202850 300.462463,319.031372 298.957642,319.859924 
	C297.176544,320.291168 295.395447,320.722412 293.283752,320.836731 
	C292.784637,320.316040 292.616058,320.112213 292.447510,319.908417 
	C292.349854,320.414734 292.252197,320.921082 292.154541,321.427399 
	C283.188171,322.749329 274.605713,321.581970 266.207336,316.879272 
	C265.295868,315.538269 264.654724,314.785736 264.013611,314.033173 
M279.483551,319.585022 
	C279.483551,319.585022 279.421570,319.478912 279.483551,319.585022 
z"/>
<path fill="#D4D2D6" opacity="1.000000" stroke="none" 
	d="
M200.328918,308.387878 
	C202.419510,313.469940 207.032852,310.912476 210.692551,311.312042 
	C212.932800,311.556641 215.164093,311.894775 217.391296,312.242767 
	C218.675537,312.443420 220.280792,313.369476 221.158722,312.893616 
	C224.393341,311.140442 228.142914,312.029022 230.938263,311.234985 
	C235.839554,309.842712 237.444534,312.378876 240.283783,314.844330 
	C241.541718,318.551331 240.369476,320.033539 236.443130,319.972839 
	C224.571106,319.789307 212.694427,319.906494 200.203186,319.906494 
	C200.203186,315.998932 200.203186,312.418243 200.328918,308.387878 
z"/>
<path fill="#E7E7E7" opacity="1.000000" stroke="none" 
	d="
M347.188965,313.130676 
	C348.020966,311.942505 349.084076,310.222473 349.974213,310.307739 
	C355.387665,310.826599 360.743195,312.163727 366.155243,312.409973 
	C369.950897,312.582642 373.790497,311.244720 377.638336,310.964600 
	C381.717926,310.667603 385.394714,306.759674 389.900665,309.676086 
	C390.468170,310.043427 391.957275,308.660492 392.961060,308.749084 
	C394.961151,308.925629 396.920654,309.561310 398.953003,310.361755 
	C396.208954,312.711426 393.408844,314.706665 390.013641,316.497040 
	C385.449371,316.864410 381.441315,317.258148 377.532990,318.109680 
	C376.236755,318.392090 375.196960,319.851624 374.039948,320.773010 
	C373.584869,320.843628 373.129761,320.914246 372.305115,320.589294 
	C371.075562,318.893951 370.215637,317.594177 368.728546,315.346497 
	C367.110657,320.869476 363.996552,319.661682 360.750244,318.444519 
	C359.754944,318.071350 358.537384,318.290833 357.421631,318.238922 
	C355.438995,317.476501 353.456329,316.714050 351.140991,315.552856 
	C350.648224,314.997009 350.456268,314.925568 350.232452,314.939758 
	C349.268341,314.437592 348.304199,313.935394 347.188965,313.130676 
z"/>
<path fill="#F6F6F7" opacity="1.000000" stroke="none" 
	d="
M173.233871,292.449829 
	C173.658691,292.012054 174.148941,291.897949 174.294510,292.072052 
	C179.373749,298.146515 184.680115,294.185516 190.025757,292.425049 
	C190.752991,293.553802 191.493866,294.703674 192.602859,296.375336 
	C192.961075,299.924835 192.951157,302.952515 192.565125,305.940430 
	C185.900482,306.262695 179.611954,306.624725 173.323410,306.986755 
	C173.261795,302.293793 173.200195,297.600830 173.233871,292.449829 
z"/>
<path fill="#D4D2D6" opacity="1.000000" stroke="none" 
	d="
M192.941238,305.980225 
	C192.951157,302.952515 192.961075,299.924835 192.942444,296.443054 
	C192.917831,277.828522 192.921753,259.668060 192.907501,241.081848 
	C193.379456,241.831985 194.293411,243.006470 194.297302,244.183960 
	C194.379745,269.113190 194.359741,294.042755 194.359741,319.445038 
	C187.393799,319.445038 180.695786,319.445038 173.417953,319.445038 
	C173.325439,317.668579 173.225250,315.744415 173.647232,313.394104 
	C176.148636,312.967987 178.127838,312.967987 180.413116,312.967987 
	C180.542328,316.920319 182.269669,318.273376 186.046356,318.109650 
	C192.930344,317.811218 192.945572,318.074615 192.975113,310.975372 
	C192.982056,309.310394 192.953491,307.645264 192.941238,305.980225 
z"/>
<path fill="#EFEFF0" opacity="1.000000" stroke="none" 
	d="
M192.565125,305.940430 
	C192.953491,307.645264 192.982056,309.310394 192.975113,310.975372 
	C192.945572,318.074615 192.930344,317.811218 186.046356,318.109650 
	C182.269669,318.273376 180.542328,316.920319 180.413116,312.967987 
	C178.127838,312.967987 176.148636,312.967987 173.743439,312.964417 
	C173.256378,311.248749 173.195297,309.536682 173.228806,307.405701 
	C179.611954,306.624725 185.900482,306.262695 192.565125,305.940430 
z"/>
<path fill="#E7E7E7" opacity="1.000000" stroke="none" 
	d="
M435.165039,301.353973 
	C441.410492,300.839600 447.739258,298.441742 453.782166,302.707703 
	C454.038635,304.440308 454.079285,305.885620 453.954163,307.872375 
	C453.788452,308.413818 453.893402,308.666290 453.893402,308.666290 
	C453.913666,308.893677 453.933929,309.121094 453.682922,309.795105 
	C453.186859,310.444946 453.049591,310.695984 452.999878,310.994904 
	C452.570587,311.116058 452.141327,311.237183 451.235352,311.006470 
	C450.156799,310.817505 449.554871,310.980408 448.952972,311.143341 
	C448.586945,311.217682 448.220886,311.292023 447.177032,311.200378 
	C446.221680,311.066040 445.944153,311.097717 445.666595,311.129395 
	C445.666595,311.129395 445.247467,311.365021 445.247467,311.365021 
	C445.247467,311.365021 444.766632,311.364746 444.108032,311.206055 
	C443.151123,311.080353 442.852783,311.113373 442.554443,311.146393 
	C442.387787,311.412994 442.152130,311.507233 441.405670,311.224304 
	C440.391327,311.065582 439.818817,311.111694 439.246307,311.157776 
	C438.749939,311.340271 438.253571,311.522736 437.249939,311.523621 
	C436.377014,311.218079 436.011292,311.094086 435.645599,310.970123 
	C435.453125,309.258545 435.260620,307.546997 435.379852,305.379608 
	C435.921112,304.782440 436.150696,304.641052 436.380249,304.499695 
	C436.006805,304.338989 435.633331,304.178314 435.259888,304.017639 
	C435.196838,303.254395 435.133789,302.491119 435.165039,301.353973 
z"/>
<path fill="#E7E7E7" opacity="1.000000" stroke="none" 
	d="
M89.002144,310.998779 
	C89.315651,311.094543 89.573372,311.271515 89.878677,312.206848 
	C89.982048,316.558167 89.982048,320.232391 89.982048,322.621094 
	C87.967598,322.784576 86.452408,322.907532 84.937218,323.030457 
	C84.937218,323.030487 84.453003,322.942566 84.227394,322.498291 
	C83.018845,321.626343 82.035896,321.198730 81.052948,320.771088 
	C79.168449,318.734833 77.283951,316.698608 75.604401,314.246399 
	C75.701660,313.557098 75.593979,313.283783 75.486298,313.010437 
	C75.563148,311.872253 75.640015,310.734039 75.917580,309.309784 
	C76.643112,309.191071 77.167938,309.358429 77.915413,310.127319 
	C81.759422,310.818878 85.380783,310.908844 89.002144,310.998779 
z"/>
<path fill="#EBEAEA" opacity="1.000000" stroke="none" 
	d="
M103.970276,314.018402 
	C105.796860,313.012207 107.586449,311.226654 109.456558,311.137909 
	C116.645752,310.796753 123.861061,310.967621 131.065720,311.038788 
	C131.964645,311.047638 132.858170,311.601685 133.831665,312.391724 
	C133.909119,312.880371 133.940094,313.194122 133.940094,313.194122 
	C132.206558,313.738068 130.473022,314.282013 128.137054,314.593872 
	C126.328964,314.709656 125.123299,315.057495 123.917633,315.405304 
	C118.213493,315.528931 112.509346,315.652527 106.209625,315.386932 
	C105.066116,314.671295 104.518196,314.344849 103.970276,314.018402 
z"/>
<path fill="#E0E0E1" opacity="1.000000" stroke="none" 
	d="
M330.916565,275.960999 
	C330.848450,278.430389 330.780365,280.899780 330.441711,283.655212 
	C329.599518,285.134399 329.027863,286.327545 328.145081,287.740540 
	C327.483307,286.101074 327.132660,284.241699 326.714294,282.023224 
	C312.483582,282.023224 297.949280,282.023224 282.982056,282.040405 
	C283.508453,281.457184 284.463898,280.341248 285.427673,280.334045 
	C298.979187,280.232544 312.531830,280.270782 326.084076,280.319489 
	C327.012848,280.322815 327.940399,280.679016 329.214691,280.942749 
	C329.448120,279.482086 329.666168,278.117554 330.188416,276.365631 
	C330.492584,275.978210 330.916534,275.960999 330.916565,275.960999 
z"/>
<path fill="#F4F3F4" opacity="1.000000" stroke="none" 
	d="
M110.562698,302.201843 
	C110.656387,303.175751 110.326622,304.824921 109.967155,304.831451 
	C104.950287,304.922119 99.925674,304.853912 94.917122,304.572296 
	C94.554619,304.551941 94.301788,302.580566 93.993225,301.149872 
	C96.170639,300.961090 98.352791,301.138763 100.811569,301.887299 
	C101.458862,302.829742 101.829529,303.201324 102.200180,303.572906 
	C102.466843,303.078369 102.733513,302.583832 103.000183,302.089325 
	C105.375267,302.097321 107.750343,302.105316 110.562698,302.201843 
z"/>
<path fill="#E7E7E7" opacity="1.000000" stroke="none" 
	d="
M434.809357,251.316376 
	C435.381073,255.206726 435.762604,259.378967 435.803345,263.554504 
	C435.810699,264.310852 434.414307,265.742493 433.677551,265.734924 
	C429.522278,265.692352 425.370514,265.305542 421.097656,264.665283 
	C425.278259,264.294495 429.578796,264.294495 434.502289,264.294495 
	C434.502289,259.724762 434.502289,255.662079 434.809357,251.316376 
z"/>
<path fill="#C7C5C9" opacity="1.000000" stroke="none" 
	d="
M85.053650,323.340942 
	C86.452408,322.907532 87.967598,322.784576 89.982048,322.621094 
	C89.982048,320.232391 89.982048,316.558167 89.988022,312.417603 
	C91.249084,312.156342 92.504181,312.361450 93.938675,312.830566 
	C93.172844,314.791473 91.740570,316.396851 91.400368,318.207489 
	C90.930061,320.710541 91.282356,323.368164 91.282356,327.045441 
	C88.700401,325.611755 86.935249,324.631592 85.053650,323.340942 
z"/>
<path fill="#D4D2D6" opacity="1.000000" stroke="none" 
	d="
M374.329590,320.950256 
	C375.196960,319.851624 376.236755,318.392090 377.532990,318.109680 
	C381.441315,317.258148 385.449371,316.864410 389.667664,316.509827 
	C384.817596,318.194153 379.718414,319.660797 374.329590,320.950256 
z"/>
<path fill="#D4D2D6" opacity="1.000000" stroke="none" 
	d="
M357.676575,318.506531 
	C358.537384,318.290833 359.754944,318.071350 360.750244,318.444519 
	C363.996552,319.661682 367.110657,320.869476 368.728546,315.346497 
	C370.215637,317.594177 371.075562,318.893951 371.963928,320.531372 
	C367.305389,320.170746 362.618469,319.472443 357.676575,318.506531 
z"/>
<path fill="#E0E0E1" opacity="1.000000" stroke="none" 
	d="
M289.601379,298.791748 
	C285.569794,300.910461 281.257477,300.675629 277.053406,297.579590 
	C281.033661,297.708374 285.093201,298.193970 289.601379,298.791748 
z"/>
<path fill="#D4D2D6" opacity="1.000000" stroke="none" 
	d="
M227.728455,298.769043 
	C224.610321,299.071564 221.242508,299.054230 217.481140,298.964111 
	C217.544052,298.053223 218.000488,297.215088 218.684418,296.200409 
	C220.770477,300.354065 224.494370,298.095642 227.728455,298.769043 
z"/>
<path fill="#E0E0E1" opacity="1.000000" stroke="none" 
	d="
M255.959259,309.936523 
	C259.806427,307.387848 261.009583,310.069000 262.028748,313.690216 
	C262.035645,314.287872 262.045715,314.765259 262.045715,314.765259 
	C260.054291,313.251526 258.062897,311.737762 255.959259,309.936523 
z"/>
<path fill="#E7E7E7" opacity="1.000000" stroke="none" 
	d="
M163.345520,290.927612 
	C164.034927,288.123322 165.027695,285.143188 166.356659,282.071838 
	C165.678177,284.904358 164.663528,287.828064 163.345520,290.927612 
z"/>
<path fill="#C7C5C9" opacity="1.000000" stroke="none" 
	d="
M238.550568,280.681244 
	C238.185562,278.482727 237.983932,275.849792 238.084137,273.045837 
	C238.495285,275.332153 238.604614,277.789490 238.550568,280.681244 
z"/>
<path fill="#E0E0E1" opacity="1.000000" stroke="none" 
	d="
M296.939850,294.607788 
	C297.979492,294.003235 299.081848,293.694702 300.184204,293.386169 
	C300.359894,294.257019 300.535553,295.127930 300.711212,295.998810 
	C299.727966,296.127716 298.744751,296.256622 297.447205,296.225372 
	C297.089447,295.678070 297.046021,295.290955 296.939850,294.607788 
z"/>
<path fill="#D4D2D6" opacity="1.000000" stroke="none" 
	d="
M374.752197,237.732452 
	C372.842133,238.189270 370.690674,238.351746 368.269104,238.255280 
	C370.169586,237.810257 372.340210,237.624176 374.752197,237.732452 
z"/>
<path fill="#C7C5C9" opacity="1.000000" stroke="none" 
	d="
M461.561890,284.266968 
	C463.723724,283.986511 466.243469,283.924713 468.924744,284.210571 
	C466.697449,284.533997 464.308594,284.509796 461.561890,284.266968 
z"/>
<path fill="#F4F3F4" opacity="1.000000" stroke="none" 
	d="
M267.106476,275.685120 
	C267.660248,273.682404 268.411713,271.394623 269.493713,269.028320 
	C268.984222,271.099884 268.144226,273.249939 267.106476,275.685120 
z"/>
<path fill="#D4D2D6" opacity="1.000000" stroke="none" 
	d="
M232.353745,289.796509 
	C233.673981,288.809418 235.404053,287.936890 237.533020,287.248413 
	C237.965118,287.646576 237.998306,287.860687 238.031479,288.074768 
	C238.031479,288.074768 237.962189,288.559418 237.606140,288.758240 
	C236.856750,289.138733 236.463409,289.320404 236.070068,289.502075 
	C234.967911,289.638397 233.865738,289.774719 232.353745,289.796509 
z"/>
<path fill="#E7E7E7" opacity="1.000000" stroke="none" 
	d="
M163.729691,257.719666 
	C162.627106,256.210022 161.507874,254.346542 160.607666,252.270721 
	C161.788803,253.827545 162.750931,255.596695 163.729691,257.719666 
z"/>
<path fill="#DBD9DD" opacity="1.000000" stroke="none" 
	d="
M299.308350,319.875793 
	C300.462463,319.031372 301.967285,318.202850 303.709961,317.615173 
	C302.518250,318.534576 301.088623,319.213135 299.308350,319.875793 
z"/>
<path fill="#D4D2D6" opacity="1.000000" stroke="none" 
	d="
M238.761581,298.838135 
	C237.149338,299.302277 235.332687,299.464569 233.272400,299.362732 
	C234.871552,298.911133 236.714371,298.723724 238.761581,298.838135 
z"/>
<path fill="#C7C5C9" opacity="1.000000" stroke="none" 
	d="
M235.195801,261.166199 
	C236.552872,260.540802 238.082947,260.201202 239.966034,259.857727 
	C238.668961,260.386536 237.018875,260.919281 235.195801,261.166199 
z"/>
<path fill="#D4D2D6" opacity="1.000000" stroke="none" 
	d="
M347.723083,245.137329 
	C346.639465,246.422150 345.227264,247.740280 343.466248,249.053909 
	C344.543152,247.756485 345.968842,246.463562 347.723083,245.137329 
z"/>
<path fill="#D4D2D6" opacity="1.000000" stroke="none" 
	d="
M330.956177,275.537048 
	C330.916534,275.960999 330.492584,275.978210 330.280457,275.980957 
	C330.354095,273.933472 330.639862,271.883209 331.122711,269.556610 
	C331.211792,271.224548 331.103821,273.168823 330.956177,275.537048 
z"/>
<path fill="#E7E7E7" opacity="1.000000" stroke="none" 
	d="
M57.312679,298.234711 
	C58.758339,298.626831 60.317467,299.317505 61.948357,300.325012 
	C60.488796,299.939026 58.957474,299.236145 57.312679,298.234711 
z"/>
<path fill="#E7E7E7" opacity="1.000000" stroke="none" 
	d="
M166.180328,265.703064 
	C165.536713,264.508636 164.956070,262.988983 164.582153,261.268616 
	C165.273666,262.504547 165.758484,263.941193 166.180328,265.703064 
z"/>
<path fill="#E7E7E7" opacity="1.000000" stroke="none" 
	d="
M434.842468,243.227722 
	C435.265656,244.197205 435.439697,245.368042 435.366791,246.749298 
	C434.944336,245.782837 434.768829,244.605957 434.842468,243.227722 
z"/>
<path fill="#C7C5C9" opacity="1.000000" stroke="none" 
	d="
M124.269829,315.447998 
	C125.123299,315.057495 126.328964,314.709656 127.742859,314.591034 
	C126.841400,315.043732 125.731712,315.267212 124.269829,315.447998 
z"/>
<path fill="#D4D2D6" opacity="1.000000" stroke="none" 
	d="
M413.668945,279.640381 
	C413.180664,278.478912 412.819031,276.964661 412.678040,275.239105 
	C413.197693,276.447723 413.496643,277.867706 413.668945,279.640381 
z"/>
<path fill="#DBD9DD" opacity="1.000000" stroke="none" 
	d="
M262.241364,315.036865 
	C262.045715,314.765259 262.035645,314.287872 262.065613,314.049377 
	C262.520233,313.870605 262.944916,313.930328 263.691589,314.011597 
	C264.654724,314.785736 265.295868,315.538269 265.984497,316.592407 
	C264.833618,316.365479 263.635315,315.836975 262.241364,315.036865 
z"/>
<path fill="#F2F2F2" opacity="1.000000" stroke="none" 
	d="
M333.142700,295.292175 
	C335.003235,295.137909 337.137726,295.146790 334.645081,297.930176 
	C333.933411,297.213409 333.536591,296.421021 333.142700,295.292175 
z"/>
<path fill="#C7C5C9" opacity="1.000000" stroke="none" 
	d="
M81.217491,321.038818 
	C82.035896,321.198730 83.018845,321.626343 84.031479,322.349365 
	C83.168129,322.198700 82.275085,321.752625 81.217491,321.038818 
z"/>
<path fill="#C7C5C9" opacity="1.000000" stroke="none" 
	d="
M219.237915,262.843079 
	C219.529526,262.155090 220.068710,261.312073 220.791107,260.679993 
	C220.478027,261.489990 219.981750,262.089020 219.237915,262.843079 
z"/>
<path fill="#DBD9DD" opacity="1.000000" stroke="none" 
	d="
M421.126465,284.373047 
	C422.709320,284.073517 424.534149,284.092072 426.661041,284.348755 
	C425.098206,284.621643 423.233307,284.656372 421.126465,284.373047 
z"/>
<path fill="#F4F3F4" opacity="1.000000" stroke="none" 
	d="
M200.383514,295.315430 
	C201.200012,295.222473 201.902344,295.462555 202.604675,295.702606 
	C202.101776,296.136780 201.598892,296.570984 200.796387,297.012054 
	C200.420975,296.562103 200.345154,296.105286 200.383514,295.315430 
z"/>
<path fill="#C7C5C9" opacity="1.000000" stroke="none" 
	d="
M103.689240,314.031189 
	C104.518196,314.344849 105.066116,314.671295 105.776611,315.186707 
	C104.801888,315.352600 103.664581,315.329529 102.276360,315.074890 
	C102.486366,314.576904 102.947289,314.310455 103.689240,314.031189 
z"/>
<path fill="#D4D2D6" opacity="1.000000" stroke="none" 
	d="
M362.768402,238.763016 
	C361.939087,239.244644 360.790344,239.674774 359.312408,240.048035 
	C360.138458,239.564606 361.293732,239.138062 362.768402,238.763016 
z"/>
<path fill="#C7C5C9" opacity="1.000000" stroke="none" 
	d="
M219.954529,268.692108 
	C219.615341,269.164490 219.224472,269.355042 218.833588,269.545593 
	C218.724380,268.834808 218.615173,268.123993 218.717346,267.215179 
	C219.253418,267.481537 219.578125,267.945892 219.954529,268.692108 
z"/>
<path fill="#D4D2D6" opacity="1.000000" stroke="none" 
	d="
M412.801025,270.655273 
	C412.277283,269.808960 411.816864,268.601715 411.583679,267.222260 
	C412.162048,268.131500 412.513184,269.212952 412.801025,270.655273 
z"/>
<path fill="#E0E0E1" opacity="1.000000" stroke="none" 
	d="
M245.430634,294.260071 
	C245.990311,294.746552 246.518295,295.535645 247.028992,296.646790 
	C246.474136,296.166779 245.936539,295.364746 245.430634,294.260071 
z"/>
<path fill="#E7E7E7" opacity="1.000000" stroke="none" 
	d="
M156.077209,244.676453 
	C155.381149,244.276062 154.671585,243.560013 153.956299,242.494614 
	C154.654953,242.883789 155.359329,243.622299 156.077209,244.676453 
z"/>
<path fill="#D4D2D6" opacity="1.000000" stroke="none" 
	d="
M350.738617,243.227966 
	C350.287750,243.855576 349.529602,244.473129 348.441833,245.074966 
	C348.885284,244.445480 349.658295,243.831696 350.738617,243.227966 
z"/>
<path fill="#D4D2D6" opacity="1.000000" stroke="none" 
	d="
M224.901199,240.700073 
	C223.696442,240.813232 222.141220,240.761749 220.290070,240.462494 
	C221.512985,240.321625 223.031876,240.428528 224.901199,240.700073 
z"/>
<path fill="#E0E0E1" opacity="1.000000" stroke="none" 
	d="
M251.038330,302.675903 
	C251.111404,303.152557 251.094894,303.319305 251.042053,303.734833 
	C250.372299,303.193878 249.738876,302.404205 249.076767,301.298645 
	C249.681625,301.443848 250.315201,301.904968 251.038330,302.675903 
z"/>
<path fill="#E0E0E1" opacity="1.000000" stroke="none" 
	d="
M290.486511,294.440643 
	C291.380310,294.192383 292.624390,294.098145 294.242432,294.116760 
	C293.356506,294.351318 292.096649,294.472992 290.486511,294.440643 
z"/>
<path fill="#E7E7E7" opacity="1.000000" stroke="none" 
	d="
M338.711456,302.991760 
	C339.009338,303.429474 339.019562,303.853333 339.029785,304.595337 
	C338.438873,304.444427 337.847931,303.975433 337.265778,303.204468 
	C337.657623,302.927673 338.040710,302.952789 338.711456,302.991760 
z"/>
<path fill="#D4D2D6" opacity="1.000000" stroke="none" 
	d="
M234.664307,240.174805 
	C233.854294,240.552490 232.691666,240.847534 231.170090,241.018600 
	C231.977982,240.627121 233.144836,240.359634 234.664307,240.174805 
z"/>
<path fill="#E0E0E1" opacity="1.000000" stroke="none" 
	d="
M324.950439,297.752930 
	C324.494019,297.475891 324.258392,297.021576 324.015778,296.297424 
	C324.343262,295.989166 324.677765,295.950714 325.264282,295.930420 
	C325.401306,296.490906 325.286255,297.033295 324.950439,297.752930 
z"/>
<path fill="#F2F2F2" opacity="1.000000" stroke="none" 
	d="
M102.687645,301.975922 
	C102.733513,302.583832 102.466843,303.078369 102.200180,303.572906 
	C101.829529,303.201324 101.458862,302.829742 101.070732,302.155457 
	C101.493881,301.855988 101.934494,301.859253 102.687645,301.975922 
z"/>
<path fill="#D4D2D6" opacity="1.000000" stroke="none" 
	d="
M211.463593,240.705460 
	C210.674667,240.821091 209.519623,240.794128 208.181274,240.527222 
	C209.031158,240.379150 210.064301,240.471008 211.463593,240.705460 
z"/>
<path fill="#DBD9DD" opacity="1.000000" stroke="none" 
	d="
M449.129730,311.294098 
	C449.554871,310.980408 450.156799,310.817505 450.906860,310.902832 
	C450.472168,311.248993 449.889343,311.346924 449.129730,311.294098 
z"/>
<path fill="#D4D2D6" opacity="1.000000" stroke="none" 
	d="
M99.178635,259.098816 
	C99.685356,258.856812 100.329430,258.881500 101.025696,259.151489 
	C100.490585,259.386383 99.903282,259.375946 99.178635,259.098816 
z"/>
<path fill="#D4D2D6" opacity="1.000000" stroke="none" 
	d="
M333.969727,261.232361 
	C334.076416,261.694763 333.939667,262.343445 333.538940,263.021118 
	C333.425385,262.506317 333.575836,261.962433 333.969727,261.232361 
z"/>
<path fill="#E0E0E1" opacity="1.000000" stroke="none" 
	d="
M330.710480,286.212463 
	C331.052551,286.530029 331.308655,287.120728 331.361755,287.832336 
	C330.980652,287.464020 330.802582,286.974823 330.710480,286.212463 
z"/>
<path fill="#E7E7E7" opacity="1.000000" stroke="none" 
	d="
M147.702576,286.069641 
	C147.595932,286.634888 147.200333,287.289825 146.498230,288.001434 
	C146.599030,287.425201 147.006332,286.792236 147.702576,286.069641 
z"/>
<path fill="#D4D2D6" opacity="1.000000" stroke="none" 
	d="
M387.745422,241.057388 
	C387.291351,241.127548 386.640900,240.979996 385.967194,240.568741 
	C386.478943,240.483261 387.014008,240.661469 387.745422,241.057388 
z"/>
<path fill="#F4F3F4" opacity="1.000000" stroke="none" 
	d="
M267.697571,285.733490 
	C267.239899,285.461792 266.846527,284.916779 266.652466,284.213440 
	C267.155182,284.523438 267.458527,284.991821 267.697571,285.733490 
z"/>
<path fill="#C7C5C9" opacity="1.000000" stroke="none" 
	d="
M238.322647,287.849548 
	C237.998306,287.860687 237.965118,287.646576 237.862488,287.113831 
	C237.859695,286.022705 237.926331,285.250183 238.182938,284.253662 
	C238.453201,285.227905 238.533508,286.426147 238.322647,287.849548 
z"/>
<path fill="#C7C5C9" opacity="1.000000" stroke="none" 
	d="
M454.688049,290.688263 
	C454.410980,290.434387 454.272339,289.851898 454.346771,289.130402 
	C454.648743,289.447479 454.737640,289.903564 454.688049,290.688263 
z"/>
<path fill="#F7F7F7" opacity="1.000000" stroke="none" 
	d="
M435.188965,304.258362 
	C435.633331,304.178314 436.006805,304.338989 436.380249,304.499695 
	C436.150696,304.641052 435.921112,304.782440 435.473267,304.952881 
	C435.209351,304.821014 435.163696,304.660065 435.188965,304.258362 
z"/>
<path fill="#DBD9DD" opacity="1.000000" stroke="none" 
	d="
M292.412415,321.438751 
	C292.252197,320.921082 292.349854,320.414734 292.447510,319.908417 
	C292.616058,320.112213 292.784637,320.316040 292.975952,320.785767 
	C292.889282,321.184509 292.779816,321.317322 292.412415,321.438751 
z"/>
<path fill="#C7C5C9" opacity="1.000000" stroke="none" 
	d="
M123.662766,300.640503 
	C123.470833,300.927277 123.036240,301.080322 122.373550,301.151855 
	C122.570343,300.882446 122.995224,300.694611 123.662766,300.640503 
z"/>
<path fill="#C7C5C9" opacity="1.000000" stroke="none" 
	d="
M473.676361,267.730652 
	C473.346680,267.516571 473.124359,267.026642 472.959473,266.252960 
	C473.272552,266.464447 473.528137,266.959625 473.676361,267.730652 
z"/>
<path fill="#DBD9DD" opacity="1.000000" stroke="none" 
	d="
M439.514893,311.299988 
	C439.818817,311.111694 440.391327,311.065582 441.251129,311.093140 
	C440.953461,311.258606 440.368469,311.350433 439.514893,311.299988 
z"/>
<path fill="#C7C5C9" opacity="1.000000" stroke="none" 
	d="
M238.446564,270.856934 
	C237.934586,270.839050 237.561600,270.555847 237.145874,270.033691 
	C237.597290,270.060364 238.091400,270.325958 238.446564,270.856934 
z"/>
<path fill="#C7C5C9" opacity="1.000000" stroke="none" 
	d="
M91.302330,296.017151 
	C91.048851,295.684753 90.955078,295.139740 90.993912,294.195740 
	C91.238373,294.465973 91.350204,295.135284 91.302330,296.017151 
z"/>
<path fill="#C7C5C9" opacity="1.000000" stroke="none" 
	d="
M236.330475,289.516357 
	C236.463409,289.320404 236.856750,289.138733 237.476532,288.965881 
	C237.332260,289.160034 236.961563,289.345337 236.330475,289.516357 
z"/>
<path fill="#D4D2D6" opacity="1.000000" stroke="none" 
	d="
M176.706726,240.155518 
	C176.455841,240.505081 175.893753,240.760544 175.020493,240.926331 
	C175.271393,240.578247 175.833466,240.319824 176.706726,240.155518 
z"/>
<path fill="#C7C5C9" opacity="1.000000" stroke="none" 
	d="
M91.338326,289.064789 
	C91.077744,288.726990 90.976051,288.166840 91.004913,287.193939 
	C91.256058,287.468292 91.376633,288.155334 91.338326,289.064789 
z"/>
<path fill="#DBD9DD" opacity="1.000000" stroke="none" 
	d="
M435.639221,311.216675 
	C436.011292,311.094086 436.377014,311.218079 436.853638,311.506775 
	C436.520660,311.602051 436.076752,311.532654 435.639221,311.216675 
z"/>
<path fill="#C7C5C9" opacity="1.000000" stroke="none" 
	d="
M454.694305,295.689453 
	C454.420746,295.433594 454.276611,294.847809 454.351013,294.125854 
	C454.654297,294.446259 454.739014,294.902924 454.694305,295.689453 
z"/>
<path fill="#C7C5C9" opacity="1.000000" stroke="none" 
	d="
M75.369919,313.256042 
	C75.593979,313.283783 75.701660,313.557098 75.651634,313.909851 
	C75.413795,313.826721 75.333672,313.664185 75.369919,313.256042 
z"/>
<path fill="#D4D2D6" opacity="1.000000" stroke="none" 
	d="
M350.271851,315.121765 
	C350.456268,314.925568 350.648224,314.997009 350.882294,315.292603 
	C350.956299,315.431122 350.600342,315.536926 350.600342,315.536926 
	C350.600342,315.536926 350.311249,315.303772 350.271851,315.121765 
z"/>
<path fill="#E7E7E7" opacity="1.000000" stroke="none" 
	d="
M402.162537,307.751129 
	C401.992157,307.529938 402.118835,307.306122 402.506409,307.040497 
	C402.764038,307.275848 402.661469,307.525787 402.162537,307.751129 
z"/>
<path fill="#C7C5C9" opacity="1.000000" stroke="none" 
	d="
M453.990295,308.637085 
	C453.893402,308.666290 453.788452,308.413818 453.856628,308.295593 
	C453.924805,308.177338 454.149841,308.343231 454.149841,308.343231 
	C454.149841,308.343231 454.087219,308.607849 453.990295,308.637085 
z"/>
<path fill="#E7E7E7" opacity="1.000000" stroke="none" 
	d="
M404.113129,305.520447 
	C404.005249,305.358032 404.097321,305.216431 404.341705,305.035950 
	C404.548859,305.202972 404.488556,305.384369 404.113129,305.520447 
z"/>
<path fill="#C7C5C9" opacity="1.000000" stroke="none" 
	d="
M73.285202,306.100616 
	C73.508095,305.819641 73.748398,305.886688 73.981697,306.322296 
	C73.752380,306.565948 73.528358,306.485199 73.285202,306.100616 
z"/>
<path fill="#C7C5C9" opacity="1.000000" stroke="none" 
	d="
M134.109985,313.312500 
	C133.940094,313.194122 133.909119,312.880371 133.967316,312.732941 
	C134.025528,312.585510 134.464737,312.727478 134.669434,312.834045 
	C134.805450,313.260956 134.607361,313.424377 134.109985,313.312500 
z"/>
<path fill="#E7E7E7" opacity="1.000000" stroke="none" 
	d="
M144.309479,309.267944 
	C144.201736,309.166565 144.542603,308.932190 144.648346,308.936646 
	C144.766113,309.181824 144.653824,309.324554 144.309479,309.267944 
z"/>
<path fill="#DBD9DD" opacity="1.000000" stroke="none" 
	d="
M442.757080,311.291321 
	C442.852783,311.113373 443.151123,311.080353 443.898804,311.087646 
	C443.885345,311.230743 443.422516,311.333496 442.757080,311.291321 
z"/>
<path fill="#E7E7E7" opacity="1.000000" stroke="none" 
	d="
M139.259323,311.708313 
	C139.163651,311.381470 139.390503,311.196655 139.926941,311.113434 
	C140.081039,311.474854 139.862823,311.686646 139.259323,311.708313 
z"/>
<path fill="#D4D2D6" opacity="1.000000" stroke="none" 
	d="
M345.390991,312.101685 
	C345.618378,311.844177 345.791779,311.895752 345.950500,312.219910 
	C345.974426,312.362640 345.648621,312.514679 345.648621,312.514679 
	C345.648621,312.514679 345.375549,312.280853 345.390991,312.101685 
z"/>
<path fill="#E0E0E1" opacity="1.000000" stroke="none" 
	d="
M271.370911,292.805542 
	C271.323456,292.944031 270.939880,292.707977 270.937744,292.588745 
	C271.164307,292.370026 271.325195,292.435883 271.370911,292.805542 
z"/>
<path fill="#DBD9DD" opacity="1.000000" stroke="none" 
	d="
M453.277832,311.005005 
	C453.049591,310.695984 453.186859,310.444946 453.596527,310.126465 
	C453.706177,310.345825 453.630951,310.680450 453.277832,311.005005 
z"/>
<path fill="#E7E7E7" opacity="1.000000" stroke="none" 
	d="
M149.211975,306.606018 
	C149.073502,306.357819 149.198746,306.190125 149.558868,306.043762 
	C149.767746,306.294800 149.661728,306.501953 149.211975,306.606018 
z"/>
<path fill="#E0E0E1" opacity="1.000000" stroke="none" 
	d="
M253.211426,307.175751 
	C253.487442,306.977203 253.720444,307.114990 253.943481,307.563507 
	C253.651031,307.839111 253.395996,307.718353 253.211426,307.175751 
z"/>
<path fill="#DBD9DD" opacity="1.000000" stroke="none" 
	d="
M445.849182,311.279663 
	C445.944153,311.097717 446.221680,311.066040 446.916809,311.081665 
	C446.900208,311.229248 446.466003,311.329590 445.849182,311.279663 
z"/>
<path fill="#D4D2D6" opacity="1.000000" stroke="none" 
	d="
M336.842865,256.205811 
	C337.116669,256.459595 337.022095,256.713776 336.562134,256.965149 
	C336.249634,256.696442 336.342255,256.444366 336.842865,256.205811 
z"/>
<path fill="#F4F3F4" opacity="1.000000" stroke="none" 
	d="
M271.093994,267.284790 
	C271.069427,267.222626 271.116699,267.380005 271.119324,267.419312 
	C271.121948,267.458618 271.118591,267.346954 271.093994,267.284790 
z"/>
<path fill="#C7C5C9" opacity="1.000000" stroke="none" 
	d="
M91.331673,266.114075 
	C91.096909,266.021942 91.027649,265.779266 91.041122,265.166992 
	C91.248291,265.186096 91.372734,265.574799 91.331673,266.114075 
z"/>
<path fill="#C7C5C9" opacity="1.000000" stroke="none" 
	d="
M218.985245,264.697693 
	C218.883484,264.720947 218.717850,264.499359 218.798737,264.387207 
	C218.879608,264.275085 219.131638,264.404297 219.131638,264.404297 
	C219.131638,264.404297 219.087006,264.674469 218.985245,264.697693 
z"/>
<path fill="#D4D2D6" opacity="1.000000" stroke="none" 
	d="
M108.123367,261.147461 
	C108.269356,260.859100 108.510963,260.874359 108.847198,261.196655 
	C108.951149,261.355377 108.582932,261.422668 108.582932,261.422668 
	C108.582932,261.422668 108.228325,261.302765 108.123367,261.147461 
z"/>
<path fill="#D4D2D6" opacity="1.000000" stroke="none" 
	d="
M103.955551,260.296631 
	C104.113998,259.934967 104.392914,259.935638 104.812897,260.247620 
	C104.954361,260.410431 104.539459,260.671051 104.539459,260.671051 
	C104.539459,260.671051 104.076424,260.510590 103.955551,260.296631 
z"/>
<path fill="#C7C5C9" opacity="1.000000" stroke="none" 
	d="
M91.413208,260.151978 
	C91.198227,259.948029 91.205078,259.582977 91.460876,259.072815 
	C91.684883,259.282074 91.659958,259.636475 91.413208,260.151978 
z"/>
<path fill="#C7C5C9" opacity="1.000000" stroke="none" 
	d="
M91.254532,279.024353 
	C91.032906,278.929688 90.973831,278.709106 91.010666,278.159546 
	C91.232880,278.051392 91.384529,278.262482 91.474411,278.497253 
	C91.516624,278.607483 91.439896,278.763245 91.254532,279.024353 
z"/>
<path fill="#D4D2D6" opacity="1.000000" stroke="none" 
	d="
M339.884521,252.278168 
	C340.156464,252.511398 340.082764,252.745941 339.660583,252.974487 
	C339.375671,252.732437 339.451294,252.502762 339.884521,252.278168 
z"/>
<path fill="#D4D2D6" opacity="1.000000" stroke="none" 
	d="
M396.596344,245.933090 
	C396.606049,246.094193 396.314758,246.160294 396.314758,246.160294 
	C396.314758,246.160294 396.065613,245.995392 396.044769,245.847580 
	C396.237427,245.521484 396.425018,245.545547 396.596344,245.933090 
z"/>
<path fill="#D4D2D6" opacity="1.000000" stroke="none" 
	d="
M384.761292,239.909943 
	C384.834198,240.056763 384.552551,240.183823 384.552551,240.183823 
	C384.552551,240.183823 384.257385,240.092255 384.185059,239.956024 
	C384.284576,239.598190 384.476471,239.579285 384.761292,239.909943 
z"/>
<path fill="#D4D2D6" opacity="1.000000" stroke="none" 
	d="
M239.614594,240.929916 
	C239.627411,241.087646 239.371384,241.180939 239.371384,241.180939 
	C239.371384,241.180939 239.127991,241.058121 239.097778,240.925262 
	C239.067566,240.792389 239.328262,240.614349 239.328262,240.614349 
	C239.328262,240.614349 239.601761,240.772186 239.614594,240.929916 
z"/>
<path fill="#D4D2D6" opacity="1.000000" stroke="none" 
	d="
M214.758530,240.129120 
	C214.738022,240.332260 214.454041,240.451599 214.077667,240.415192 
	C214.155212,240.188065 214.325150,240.116684 214.758530,240.129120 
z"/>
<path fill="#D4D2D6" opacity="1.000000" stroke="none" 
	d="
M188.761993,240.204544 
	C188.730469,240.414490 188.439224,240.532028 188.066422,240.476166 
	C188.157333,240.239227 188.329788,240.175690 188.761993,240.204544 
z"/>
<path fill="#D4D2D6" opacity="1.000000" stroke="none" 
	d="
M183.655762,240.756531 
	C183.624344,241.117752 183.406433,241.193512 182.992859,241.016479 
	C182.993774,240.631866 183.217804,240.534332 183.655762,240.756531 
z"/>
<path fill="#D4D2D6" opacity="1.000000" stroke="none" 
	d="
M180.362244,240.282837 
	C180.223434,240.514694 179.841354,240.585541 179.224838,240.458313 
	C179.366592,240.214096 179.742767,240.167953 180.362244,240.282837 
z"/>
<path fill="#E7E7E7" opacity="1.000000" stroke="none" 
	d="
M67.064621,303.204895 
	C67.251076,302.971741 67.504387,303.041077 67.839905,303.387329 
	C67.952171,303.554474 67.527252,303.625366 67.527252,303.625366 
	C67.527252,303.625366 67.161537,303.397644 67.064621,303.204895 
z"/>
<path fill="#E7E7E7" opacity="1.000000" stroke="none" 
	d="
M336.932251,302.292236 
	C337.033020,302.353882 337.079346,302.405975 337.079254,302.424927 
	C337.079163,302.443878 336.831451,302.230560 336.932251,302.292236 
z"/>
<path fill="#E0E0E1" opacity="1.000000" stroke="none" 
	d="
M323.145264,300.727386 
	C322.956024,300.504272 323.072571,300.275269 323.473724,300.018616 
	C323.720184,300.252289 323.617767,300.495819 323.145264,300.727386 
z"/>
<path fill="#C7C5C9" opacity="1.000000" stroke="none" 
	d="
M127.717484,299.859436 
	C127.797752,299.969849 127.488304,300.252350 127.396240,300.181763 
	C127.294220,299.878845 127.405235,299.758087 127.717484,299.859436 
z"/>
<path fill="#C7C5C9" opacity="1.000000" stroke="none" 
	d="
M91.948746,299.721344 
	C91.719864,299.681396 91.468185,299.352417 91.339264,298.715637 
	C91.616661,298.749329 91.771309,299.090790 91.948746,299.721344 
z"/>
<path fill="#E7E7E7" opacity="1.000000" stroke="none" 
	d="
M159.141937,297.709320 
	C158.979355,297.492035 159.083099,297.308777 159.400543,297.098938 
	C159.717468,297.331421 159.648819,297.555054 159.141937,297.709320 
z"/>
<path fill="#E0E0E1" opacity="1.000000" stroke="none" 
	d="
M285.250763,294.696350 
	C285.299805,294.490387 285.574432,294.433289 285.919891,294.527588 
	C285.819244,294.734375 285.647797,294.789795 285.250763,294.696350 
z"/>
<path fill="#E7E7E7" opacity="1.000000" stroke="none" 
	d="
M161.172806,294.771057 
	C160.982849,294.541107 161.102066,294.315399 161.480759,294.042419 
	C161.793549,294.283905 161.707474,294.543976 161.172806,294.771057 
z"/>
<path fill="#E0E0E1" opacity="1.000000" stroke="none" 
	d="
M251.702362,305.223938 
	C251.775330,305.114441 252.061325,305.277557 252.059723,305.365173 
	C252.058121,305.452820 251.805359,305.530273 251.805359,305.530273 
	C251.805359,305.530273 251.629379,305.333405 251.702362,305.223938 
z"/>
<path fill="#D4D2D6" opacity="1.000000" stroke="none" 
	d="
M411.895905,289.749878 
	C411.612976,289.833160 411.359344,289.660797 411.136200,289.455322 
	C411.118042,289.438599 411.308319,289.195496 411.646881,289.005615 
	C411.905731,289.130981 411.919403,289.308319 411.895905,289.749878 
z"/>
<path fill="#D4D2D6" opacity="1.000000" stroke="none" 
	d="
M412.175232,288.884521 
	C411.869690,288.605316 411.937775,288.350189 412.346832,288.062256 
	C412.606415,288.300934 412.560089,288.593964 412.175232,288.884521 
z"/>
<path fill="#C7C5C9" opacity="1.000000" stroke="none" 
	d="
M454.126862,286.677612 
	C453.860565,286.756073 453.787750,286.610565 453.920105,286.331085 
	C453.992828,286.271973 454.187866,286.528473 454.126862,286.677612 
z"/>
<path fill="#C7C5C9" opacity="1.000000" stroke="none" 
	d="
M456.232178,284.749817 
	C456.270691,284.525940 456.574097,284.403900 456.953491,284.468689 
	C456.851990,284.720886 456.674500,284.786255 456.232178,284.749817 
z"/>
<path fill="#E7E7E7" opacity="1.000000" stroke="none" 
	d="
M417.915955,283.300842 
	C418.257782,283.058716 418.529388,283.213531 418.870453,283.669769 
	C418.631561,283.781128 418.266876,283.689972 417.915955,283.300842 
z"/>
<path fill="#C7C5C9" opacity="1.000000" stroke="none" 
	d="
M473.309265,282.997498 
	C472.993652,282.732117 473.077911,282.450958 473.457458,282.085999 
	C473.716644,282.192322 473.816376,282.410583 473.835907,282.635834 
	C473.844360,282.733398 473.687531,282.845337 473.309265,282.997498 
z"/>
<path fill="#040304" opacity="1.000000" stroke="none" 
	d="
M372.939880,298.831451 
	C366.201202,298.022583 359.765167,297.070923 356.177032,289.884521 
	C352.188049,281.895355 352.793274,272.558533 358.414734,266.713501 
	C364.856537,260.015533 372.466217,259.036285 381.981812,263.988342 
	C382.414032,264.240295 382.719513,264.438416 382.719513,264.438416 
	C382.719513,264.438416 383.081573,264.399902 383.081573,264.399902 
	C383.704071,265.116302 384.326599,265.832672 385.222443,266.935760 
	C385.612946,267.602356 385.818878,267.706024 386.113556,267.633484 
	C386.113556,267.633484 386.122620,267.844574 386.230194,268.099060 
	C386.484833,268.649323 386.720215,268.830109 387.043945,268.895874 
	C387.707367,270.357880 388.370758,271.819916 389.083557,273.890625 
	C389.437744,274.996948 389.742493,275.494507 390.047272,275.992096 
	C390.032898,277.061127 390.018494,278.130127 389.806122,279.749878 
	C389.741852,281.199768 389.875519,282.098907 390.009216,282.998077 
	C388.495148,289.093811 385.167480,293.798248 378.889435,296.939026 
	C376.502472,297.726501 374.721191,298.278961 372.939880,298.831451 
z"/>
<path fill="#F2F2F2" opacity="1.000000" stroke="none" 
	d="
M373.141815,299.115997 
	C374.721191,298.278961 376.502472,297.726501 378.645508,297.185272 
	C377.119415,297.931213 375.231567,298.665894 373.141815,299.115997 
z"/>
<path fill="#C7C5C9" opacity="1.000000" stroke="none" 
	d="
M390.264709,282.832397 
	C389.875519,282.098907 389.741852,281.199768 389.861328,280.159576 
	C390.249756,280.901276 390.385010,281.784027 390.264709,282.832397 
z"/>
<path fill="#C7C5C9" opacity="1.000000" stroke="none" 
	d="
M390.262329,275.842957 
	C389.742493,275.494507 389.437744,274.996948 389.211121,274.214111 
	C389.685333,274.517151 390.081329,275.105469 390.262329,275.842957 
z"/>
<path fill="#C7C5C9" opacity="1.000000" stroke="none" 
	d="
M387.040161,268.661774 
	C386.720215,268.830109 386.484833,268.649323 386.332703,268.124695 
	C386.685974,267.910339 386.922241,268.087616 387.040161,268.661774 
z"/>
<path fill="#C7C5C9" opacity="1.000000" stroke="none" 
	d="
M386.133667,267.448059 
	C385.818878,267.706024 385.612946,267.602356 385.521301,267.136169 
	C385.841614,266.874634 386.043915,266.978912 386.133667,267.448059 
z"/>
<path fill="#C7C5C9" opacity="1.000000" stroke="none" 
	d="
M383.036804,264.212372 
	C383.081573,264.399902 382.719513,264.438416 382.719513,264.438416 
	C382.719513,264.438416 382.414032,264.240295 382.348938,264.070160 
	C382.552094,263.758606 382.788177,263.800201 383.036804,264.212372 
z"/>
<path fill="#040304" opacity="1.000000" stroke="none" 
	d="
M45.026798,280.379974 
	C42.580147,278.416931 39.962326,276.629761 37.724918,274.451782 
	C33.883053,270.711975 34.137371,268.331177 38.801117,265.444336 
	C47.171768,260.262909 56.590332,258.617767 66.992249,257.740051 
	C70.525291,257.747498 73.286125,257.866425 76.046967,257.985352 
	C75.997017,259.696014 75.947067,261.406677 75.589912,263.827728 
	C75.535538,271.021149 75.788376,277.504150 76.041214,283.987183 
	C76.009644,286.697632 75.978073,289.408112 75.763321,292.788940 
	C75.046570,293.797577 74.513000,294.135895 73.979424,294.474182 
	C73.513710,294.347900 73.047997,294.221588 72.158684,293.879486 
	C71.735085,293.663666 71.435646,293.415131 71.435646,293.415131 
	C71.435646,293.415131 71.076164,293.563782 71.076157,293.563782 
	C65.825523,291.107208 60.574883,288.650635 54.967678,285.975464 
	C54.611111,285.756897 54.377316,285.604950 54.377316,285.604950 
	C54.377316,285.604950 54.238022,285.846252 54.238022,285.846252 
	C51.699036,284.273010 49.160046,282.699799 46.185452,280.883759 
	C45.580368,280.355682 45.339352,280.268677 45.026798,280.379974 
z"/>
<path fill="#E7E7E7" opacity="1.000000" stroke="none" 
	d="
M76.327728,283.686218 
	C75.788376,277.504150 75.535538,271.021149 75.598495,264.255798 
	C76.147606,270.444061 76.380920,276.914673 76.327728,283.686218 
z"/>
<path fill="#EBEAEA" opacity="1.000000" stroke="none" 
	d="
M88.913330,310.614624 
	C85.380783,310.908844 81.759422,310.818878 78.068237,310.366272 
	C81.607109,310.079254 85.215813,310.154877 88.913330,310.614624 
z"/>
<path fill="#E7E7E7" opacity="1.000000" stroke="none" 
	d="
M76.277100,257.745605 
	C73.286125,257.866425 70.525291,257.747498 67.410614,257.598969 
	C70.196541,256.002014 73.336632,254.482712 76.277100,257.745605 
z"/>
<path fill="#E7E7E7" opacity="1.000000" stroke="none" 
	d="
M74.060654,294.780090 
	C74.513000,294.135895 75.046570,293.797577 75.818512,293.237732 
	C76.210800,293.830261 76.364723,294.644318 76.518646,295.458405 
	C75.726395,295.334290 74.934143,295.210175 74.060654,294.780090 
z"/>
<path fill="#E7E7E7" opacity="1.000000" stroke="none" 
	d="
M71.168427,293.693817 
	C71.076164,293.563782 71.435646,293.415131 71.435646,293.415131 
	C71.435646,293.415131 71.735085,293.663666 71.793472,293.850098 
	C71.628792,294.037933 71.431732,293.967010 71.168427,293.693817 
z"/>
<path fill="#E7E7E7" opacity="1.000000" stroke="none" 
	d="
M54.274994,285.907898 
	C54.238022,285.846252 54.377316,285.604950 54.377316,285.604950 
	C54.377316,285.604950 54.611111,285.756897 54.596733,285.895966 
	C54.582352,286.035034 54.311966,285.969574 54.274994,285.907898 
z"/>
<path fill="#E7E7E7" opacity="1.000000" stroke="none" 
	d="
M45.116379,280.551880 
	C45.339352,280.268677 45.580368,280.355682 45.825352,280.835022 
	C45.626350,281.024872 45.394722,280.923126 45.116379,280.551880 
z"/>
<path fill="#F2F2F2" opacity="1.000000" stroke="none" 
	d="
M136.546860,298.469910 
	C136.577377,298.522186 136.516342,298.417633 136.546860,298.469910 
z"/>
<path fill="#040304" opacity="1.000000" stroke="none" 
	d="
M176.943756,216.135376 
	C180.865662,213.622498 184.505951,211.229599 188.404709,209.382156 
	C189.484711,208.870392 192.056503,209.530746 192.634842,210.464294 
	C193.277374,211.501465 192.941467,213.835999 192.134705,214.964615 
	C187.783691,221.051697 181.508774,223.178589 173.237137,223.172592 
	C174.624161,220.529968 175.691925,218.495636 176.943756,216.135376 
z"/>
<path fill="#C7C5C9" opacity="1.000000" stroke="none" 
	d="
M170.235672,208.276459 
	C167.493439,211.845398 164.751205,215.414322 161.967606,219.037079 
	C158.755188,214.753815 160.752258,211.838867 169.613068,208.020386 
	C170.051727,208.055740 170.235672,208.276459 170.235672,208.276459 
z"/>
<path fill="#C7C5C9" opacity="1.000000" stroke="none" 
	d="
M169.959167,207.945862 
	C170.384308,207.742401 170.902008,207.648819 171.419678,207.555237 
	C171.176987,207.743744 170.934296,207.932251 170.463623,208.198608 
	C170.235672,208.276459 170.051727,208.055740 169.959167,207.945862 
z"/>
<path fill="#E0E0E1" opacity="1.000000" stroke="none" 
	d="
M305.955261,308.590698 
	C305.720886,308.205688 305.722870,307.822876 305.752441,307.442200 
	C305.753265,307.431549 306.049774,307.443909 306.208374,307.445557 
	C306.204071,307.828094 306.199768,308.210632 305.955261,308.590698 
z"/>
<path fill="#DBD9DD" opacity="1.000000" stroke="none" 
	d="
M279.452576,319.531982 
	C279.421570,319.478912 279.483551,319.585022 279.452576,319.531982 
z"/>
</svg>